/* XPM */
static char * stim64_xpm[] = {
"64 64 478 2",
"  	c None",
". 	c #0DAEF4",
"+ 	c #0DB1F5",
"@ 	c #0DB2F6",
"# 	c #0BB3F6",
"$ 	c #0AB7F7",
"% 	c #0AB8F7",
"& 	c #09BAF8",
"* 	c #09BCF8",
"= 	c #07BEF9",
"- 	c #07C0FA",
"; 	c #05C4FB",
"> 	c #05C2FA",
", 	c #05C3FA",
"' 	c #06C3FB",
") 	c #01CAFD",
"! 	c #139FF0",
"~ 	c #159DEF",
"{ 	c #12A2EF",
"] 	c #13A1F0",
"^ 	c #12A5F1",
"/ 	c #11A6F2",
"( 	c #11A8F2",
"_ 	c #10AAF3",
": 	c #0FADF4",
"< 	c #0FAEF4",
"[ 	c #0EB1F5",
"} 	c #0DB2F5",
"| 	c #0CB5F6",
"1 	c #0BB5F7",
"2 	c #0BB7F7",
"3 	c #0ABAF8",
"4 	c #09BBF8",
"5 	c #09BDF9",
"6 	c #08BFF9",
"7 	c #07C2FA",
"8 	c #06C4FB",
"9 	c #05C6FC",
"0 	c #04C8FC",
"a 	c #03C9FC",
"b 	c #03CAFD",
"c 	c #02CBFD",
"d 	c #02CCFD",
"e 	c #00CEFE",
"f 	c #00CFFE",
"g 	c #1990EB",
"h 	c #1992EC",
"i 	c #1A92EC",
"j 	c #1896ED",
"k 	c #1898EE",
"l 	c #179AEE",
"m 	c #169DEF",
"n 	c #159FF0",
"o 	c #14A1F0",
"p 	c #13A2F1",
"q 	c #13A5F1",
"r 	c #11A7F2",
"s 	c #11A9F3",
"t 	c #0FABF3",
"u 	c #0FAFF4",
"v 	c #0DB3F6",
"w 	c #0BB6F7",
"x 	c #0BB8F7",
"y 	c #08BEF9",
"z 	c #06C2FA",
"A 	c #04C6FC",
"B 	c #03C8FC",
"C 	c #03CBFD",
"D 	c #02CDFD",
"E 	c #02CDFE",
"F 	c #01CFFE",
"G 	c #00D0FE",
"H 	c #00D1FF",
"I 	c #00D1FE",
"J 	c #01D1FF",
"K 	c #00D0FF",
"L 	c #00CFFF",
"M 	c #1C8CEA",
"N 	c #1D8AE9",
"O 	c #1D8CEA",
"P 	c #1C8EEA",
"Q 	c #1B90EB",
"R 	c #1994EC",
"S 	c #1897ED",
"T 	c #1799EE",
"U 	c #179BEE",
"V 	c #13A3F1",
"W 	c #0EAFF4",
"X 	c #0BB5F6",
"Y 	c #06C3FA",
"Z 	c #05C5FB",
"` 	c #04C7FC",
" .	c #01CEFE",
"..	c #00D2FF",
"+.	c #1F86E8",
"@.	c #1F88E9",
"#.	c #1D8DEA",
"$.	c #1B8FEB",
"%.	c #1A93EC",
"&.	c #1995ED",
"*.	c #169BEE",
"=.	c #14A0F0",
"-.	c #12A6F2",
";.	c #0FACF3",
">.	c #0EB0F4",
",.	c #0BB9F7",
"'.	c #07BFF9",
").	c #07C1FA",
"!.	c #00CDFE",
"~.	c #2181E6",
"{.	c #2084E8",
"].	c #1E88E9",
"^.	c #1C8DEA",
"/.	c #1B91EC",
"(.	c #169CEF",
"_.	c #159EEF",
":.	c #14A2F0",
"<.	c #13A4F1",
"[.	c #0CB3F6",
"}.	c #0AB9F7",
"|.	c #09BDF8",
"1.	c #05C3FB",
"2.	c #2183E7",
"3.	c #2085E8",
"4.	c #1F87E8",
"5.	c #1E89E9",
"6.	c #1D8BEA",
"7.	c #1B92EC",
"8.	c #1A94EC",
"9.	c #11A9F2",
"0.	c #10ABF3",
"a.	c #08BDF9",
"b.	c #227FE6",
"c.	c #2083E7",
"d.	c #1E8AE9",
"e.	c #1898ED",
"f.	c #159FEF",
"g.	c #227DE6",
"h.	c #2181E7",
"i.	c #2086E8",
"j.	c #1C8EEB",
"k.	c #227CE5",
"l.	c #227EE5",
"m.	c #2182E7",
"n.	c #2084E7",
"o.	c #1B91EB",
"p.	c #179CEE",
"q.	c #10A8F2",
"r.	c #0EB0F5",
"s.	c #0CB4F6",
"t.	c #247AE4",
"u.	c #237CE5",
"v.	c #227EE6",
"w.	c #2280E6",
"x.	c #1D8BE9",
"y.	c #1996ED",
"z.	c #14A2F1",
"A.	c #2478E4",
"B.	c #2281E6",
"C.	c #1798ED",
"D.	c #01CDFE",
"E.	c #2477E3",
"F.	c #2579E4",
"G.	c #247BE5",
"H.	c #237DE5",
"I.	c #1799ED",
"J.	c #0DB3F5",
"K.	c #2675E3",
"L.	c #2577E4",
"M.	c #1C8FEB",
"N.	c #1995EC",
"O.	c #11AAF3",
"P.	c #2774E3",
"Q.	c #2578E4",
"R.	c #247CE5",
"S.	c #169EEF",
"T.	c #0FACF4",
"U.	c #2772E2",
"V.	c #2676E3",
"W.	c #0AB9F8",
"X.	c #2870E2",
"Y.	c #2576E3",
"Z.	c #1698EC",
"`.	c #1397EA",
" +	c #16A1F1",
".+	c #15A5F2",
"++	c #14A7F4",
"@+	c #13A9F4",
"#+	c #12AAF4",
"$+	c #11ABF4",
"%+	c #0EB2F5",
"&+	c #296EE1",
"*+	c #2871E2",
"=+	c #2775E3",
"-+	c #2577E3",
";+	c #1F88E8",
">+	c #189BEF",
",+	c #0C73D3",
"'+	c #003DAF",
")+	c #0049B6",
"!+	c #0657C0",
"~+	c #0765C9",
"{+	c #0976D3",
"]+	c #0C84DC",
"^+	c #0D93E5",
"/+	c #0DA5EE",
"(+	c #0FAEF5",
"_+	c #0EB3F6",
":+	c #0EB8F9",
"<+	c #0DB8F9",
"[+	c #0CB8F8",
"}+	c #0BB8F8",
"|+	c #0BBAF8",
"1+	c #0ABBF9",
"2+	c #2A6EE1",
"3+	c #2773E2",
"4+	c #189BF0",
"5+	c #075DC4",
"6+	c #0036AA",
"7+	c #003AAD",
"8+	c #0039AC",
"9+	c #0037AB",
"0+	c #0035AA",
"a+	c #003BAE",
"b+	c #0146B5",
"c+	c #0252BC",
"d+	c #0663C7",
"e+	c #0577D2",
"f+	c #0888DC",
"g+	c #0999E6",
"h+	c #0AACF0",
"i+	c #09B7F6",
"j+	c #09BEF9",
"k+	c #09C7FD",
"l+	c #07C6FD",
"m+	c #07C5FD",
"n+	c #06C6FC",
"o+	c #05C7FD",
"p+	c #2A6CE0",
"q+	c #286FE1",
"r+	c #2774E2",
"s+	c #257AE4",
"t+	c #18A1F2",
"u+	c #118AE1",
"v+	c #0144B3",
"w+	c #003CAF",
"x+	c #003CAE",
"y+	c #0039AD",
"z+	c #0142B3",
"A+	c #024DB9",
"B+	c #0360C4",
"C+	c #0472CE",
"D+	c #0487D9",
"E+	c #069CE6",
"F+	c #06AEF0",
"G+	c #04BCF6",
"H+	c #04CEFF",
"I+	c #03CEFF",
"J+	c #03CDFE",
"K+	c #2A6AE0",
"L+	c #2870E1",
"M+	c #169EF0",
"N+	c #16A2F1",
"O+	c #096CCE",
"P+	c #0038AC",
"Q+	c #0034AA",
"R+	c #0031A8",
"S+	c #0134AB",
"T+	c #0242B3",
"U+	c #057AD5",
"V+	c #08ADEF",
"W+	c #2A6BE0",
"X+	c #296FE1",
"Y+	c #16A3F3",
"Z+	c #1195E8",
"`+	c #0454BE",
" @	c #0030A6",
".@	c #003DB0",
"+@	c #003BAF",
"@@	c #286DE1",
"#@	c #15A0F1",
"$@	c #14A5F2",
"%@	c #13AAF5",
"&@	c #286EE1",
"*@	c #237BE5",
"=@	c #12A4F2",
"-@	c #0FA7F2",
";@	c #296DE1",
">@	c #2082E7",
",@	c #14A3F1",
"'@	c #0EACF4",
")@	c #2473E2",
"!@	c #2281E7",
"~@	c #2671E2",
"{@	c #227DE5",
"]@	c #1B8EEB",
"^@	c #149FF0",
"/@	c #12A5F2",
"(@	c #2575E3",
"_@	c #169CEE",
":@	c #0EADF4",
"<@	c #2573E2",
"[@	c #247AE5",
"}@	c #159EF0",
"|@	c #0FADF3",
"1@	c #0EAEF4",
"2@	c #0DADF4",
"3@	c #2278E4",
"4@	c #237AE5",
"5@	c #0DB0F4",
"6@	c #2379E5",
"7@	c #237CE6",
"8@	c #2184E7",
"9@	c #0AB6F6",
"0@	c #0A51C2",
"a@	c #1D79E1",
"b@	c #2286E9",
"c@	c #1798EE",
"d@	c #0BB4F6",
"e@	c #0AB6F7",
"f@	c #003EB0",
"g@	c #0038A8",
"h@	c #0037A9",
"i@	c #003AAB",
"j@	c #003CAD",
"k@	c #0C59C5",
"l@	c #2087E9",
"m@	c #344FD6",
"n@	c #3254D7",
"o@	c #2E54D6",
"p@	c #2853D2",
"q@	c #1F51CC",
"r@	c #1B4EC8",
"s@	c #124AC0",
"t@	c #0B47BA",
"u@	c #0642B5",
"v@	c #013EB1",
"w@	c #003BAC",
"x@	c #003AAC",
"y@	c #003BAD",
"z@	c #0040B1",
"A@	c #1770D8",
"B@	c #218BEC",
"C@	c #3554D9",
"D@	c #3455D9",
"E@	c #3357DB",
"F@	c #3358DB",
"G@	c #335ADC",
"H@	c #335CDD",
"I@	c #335FDE",
"J@	c #3260DE",
"K@	c #2F61DD",
"L@	c #2D61DD",
"M@	c #275FD8",
"N@	c #225CD2",
"O@	c #1A57CC",
"P@	c #1651C6",
"Q@	c #0D4DBF",
"R@	c #0847B8",
"S@	c #033FB2",
"T@	c #0039AB",
"U@	c #0A51BF",
"V@	c #1E86E7",
"W@	c #1F8BEB",
"X@	c #12A7F2",
"Y@	c #3552D8",
"Z@	c #3454D9",
"`@	c #3357DA",
" #	c #3259DA",
".#	c #325ADB",
"+#	c #315CDB",
"@#	c #305DDC",
"##	c #305FDC",
"$#	c #2E61DD",
"%#	c #2F63DE",
"&#	c #2D65DF",
"*#	c #2E68E0",
"=#	c #2D69E0",
"-#	c #2D6CE2",
";#	c #2C6FE3",
">#	c #2B70E3",
",#	c #2971E2",
"'#	c #236FDE",
")#	c #1D67D7",
"!#	c #1962D1",
"~#	c #135BCB",
"{#	c #0D53C2",
"]#	c #094CBC",
"^#	c #0245B5",
"/#	c #0038AB",
"(#	c #1167D0",
"_#	c #0CB1F4",
":#	c #3451D8",
"<#	c #3553D9",
"[#	c #305EDC",
"}#	c #2F5FDC",
"|#	c #2E62DD",
"1#	c #2E63DE",
"2#	c #2D65DE",
"3#	c #2C67DF",
"4#	c #2B68DF",
"5#	c #2B6BE0",
"6#	c #2A6DE0",
"7#	c #2773E3",
"8#	c #2776E4",
"9#	c #2778E5",
"0#	c #267BE6",
"a#	c #267EE7",
"b#	c #2581E8",
"c#	c #2383E9",
"d#	c #217EE5",
"e#	c #1978DD",
"f#	c #156BD4",
"g#	c #1976DB",
"h#	c #1E8BEA",
"i#	c #1899EE",
"j#	c #3451D9",
"k#	c #3356DA",
"l#	c #325BDB",
"m#	c #2F60DD",
"n#	c #2E64DE",
"o#	c #2B69DF",
"p#	c #237EE5",
"q#	c #1B8FEA",
"r#	c #15A0F0",
"s#	c #3550D8",
"t#	c #3257DA",
"u#	c #315BDB",
"v#	c #2D64DE",
"w#	c #2C68DF",
"x#	c #2872E2",
"y#	c #2479E4",
"z#	c #0EACF3",
"A#	c #3551D8",
"B#	c #3258DA",
"C#	c #2D66DE",
"D#	c #2B6AE0",
"E#	c #2085E7",
"F#	c #3650D8",
"G#	c #3553D8",
"H#	c #2E63DD",
"I#	c #2D67DF",
"J#	c #1F85E8",
"K#	c #3550D7",
"L#	c #3456DA",
"M#	c #2F60DC",
"N#	c #364FD8",
"O#	c #3259DB",
"P#	c #13A2F0",
"Q#	c #3450D8",
"R#	c #354FD7",
"S#	c #2D66DF",
"T#	c #10A3F1",
"U#	c #1F87E9",
"V#	c #354FD8",
"W#	c #315DDB",
"X#	c #1993EB",
"Y#	c #1A90EB",
"Z#	c #3151D8",
"`#	c #3552D9",
" $	c #2C69DF",
".$	c #1F83E8",
"+$	c #2180E6",
"@$	c #217FE6",
"#$	c #2B69E0",
"$$	c #2771E2",
"%$	c #3350D7",
"&$	c #2970E1",
"*$	c #3453D8",
"=$	c #2574E3",
"-$	c #3253D8",
";$	c #3356D9",
">$	c #305CDC",
",$	c #286CE0",
"'$	c #2B68DE",
")$	c #3158DA",
"!$	c #2F5DDC",
"~$	c #315ADB",
"                                                  . + @ + # $ % & * = - ; > , ' )                                               ",
"                                  ! ~ { ] ^ / ( _ : < [ } | 1 2 3 4 5 6 - 7 8 ; 9 0 a b c d d e b f                             ",
"                        g h i j k l m n o p q r s t : u [ v | w x 3 4 y 6 - z 8 8 A B a C c D E F G H I J K L                   ",
"                  M N O P Q i R S T U m n o V ^ r s t : W + v X w x 3 * y 6 - Y 8 Z ` B a C d D  .F G H ..........H             ",
"                  +.@.N #.$.Q %.&.S T *.m =.o V -.( s ;.< >.+ v X 2 ,.& * 6 '.)., 8 9 ` B a C D E F F K H ..........!.          ",
"                ~.{.+.].N ^.$./.%.&.S l (._.=.:.<.-.( _ ;.< [ } [.X 2 }.4 |.6 '.).1.8 A ` a b C D E F F H ..........I           ",
"                ~.2.3.4.5.6.P $.7.8.j k l (._.o p q -.9.0.: < [ } | w 2 3 4 a.6 - 7 8 8 A 0 a C c D E F F H ..........          ",
"                b.~.c.3.4.d.O P Q i 8.j e.U m f.=.V ^ r 9.t : W + @ | w x 3 4 y 6 - z 8 Z ` 0 a C d D  .F G H ........          ",
"                g.b.h.c.i.@.N O j.Q %.R j T U m n o V ^ r s ;.: >.+ v X w x 3 * y '.- , 8 Z ` B a C d E  .F K H ......          ",
"                k.l.b.m.n.+.@.N O $.o.%.&.S T p.m =.:.V -.q._ ;.< r.+ s.X 2 }.3 * 6 '.)., 8 9 ` a a C D E F F H ......          ",
"                t.u.v.w.m.{.4.5.x.^.$.o.8.y.e.l (._.=.z.<.-.( _ : < [ } s.X x 3 4 5 6 - ).8 8 A 0 a b C D E F F H ....          ",
"                A.t.u.b.B.c.3.4.5.6.^.Q i 8.j C.l (._.=.p <./ 9.t : u [ } s.1 2 3 * 5 6 - z 8 8 ` B a b c D D.F f H ..          ",
"                E.F.G.H.b.~.c.3.4.N O P Q i R j I.U m n o V ^ r s t : >.+ J.| w x 3 * y 6 - z 8 Z ` B a C d E  .F K H           ",
"                K.L.F.G.H.b.h.n.i.@.d.O M.o.%.N.S T U m n o V -.r O.;.: >.+ v X w }.3 * y '.- , 8 9 ` B a C D E  .F K           ",
"                P.K.Q.F.R.v.w.m.n.+.].N #.$.o.%.&.S l (.S.=.:.V -.( _ T.< [ } s.X 2 }.4 * 6 '.).1.8 9 ` a b C D E F F           ",
"                U.P.V.Q.t.u.v.w.m.3.4.5.x.^.$.7.%.j e.l (._.=.z.<.-.( _ : < [ } s.X 2 W.4 a.6 - ).8 8 A ` a b c D E F           ",
"                X.U.P.Y.Q.G.H.b.B.c.3.4.5.O P Q i R j k Z.`. +.+++@+#+$+T.< u %+@ | w x 3 4 y 6 - z 8 Z ` 0 a C d D D.          ",
"                &+*+U.=+-+F.G.H.b.h.c.i.;+d.O P Q %.N.j >+,+'+)+!+~+{+]+^+/+(+_+:+<+[+}+|+1+* y '.- , 8 Z ` B a C d D           ",
"                2+&+*+3+K.L.F.u.v.b.m.n.+.@.N #.$.o.%.&.S 4+(.5+6+7+7+8+9+0+a+b+c+d+e+f+g+h+i+j+k+l+m+9 n+o+0 a b C d           ",
"                p+2+q+U.r+K.L.s+R.v.w.m.n.4.].x.#.$.o.%.&.S l t+u+v+8+'+'+'+'+w+x+a+7+8+9+0+y+z+A+B+C+D+E+F+G+Z H+I+J+          ",
"                K+p+2+L+U.P.V.Q.t.H.b.w.c.3.4.5.6.P $.i 8.j e.l M+N+O+9+x+'+'+'+'+'+'+'+'+'+'+w+x+a+7+P+Q+R+S+T+c+U+V+          ",
"                  W+p+X+X.U.=+V.Q.G.H.b.B.c.3.4.d.O P Q i R j e.U m Y+Z+`+ @.@x+x++@                                            ",
"                    @@p+X+*+3+K.-+F.G.H.b.h.n.i.;+N O M.Q %.N.j T U m #@$@%@                                                    ",
"                        &@X+*+3+K.L.F.*@l.w.m.n.+.].N #.$.o.%.&.S T (.S.=.o =@-@                                                ",
"                          ;@L+U.P.V.Q.t.u.v.w.>@{.4.5.x.^.$.o.%.j e.l (._.=.z.<./                                               ",
"                              U.U.P.V.F.t.H.b.w.c.3.4.5.6.P Q 7.8.j e.l (.n o ,@q r '@                                          ",
"                                )@U.K.-+F.G.H.b.!@c.3.;+d.O P Q i N.S T U m n o V ^ r _                                         ",
"                                    ~@K.L.F.G.{@w.m.n.+.@.N O ]@o.%.N.S T U m ^@o V /@( O.t                                     ",
"                                        (@L.F.R.v.w.m.n.+.5.N #.$.o.%.&.S l _@S.=.z.<.-.( _ :@                                  ",
"                                          <@Q.[@u.v.w.c.3.4.5.6.^.Q o.8.j e.l (.}@=.z.<.-.9._ |@:@                              ",
"                                              A.t.H.b.!@c.3.4.d.6.P Q i 8.j k U m n o V q r s t < 1@2@                          ",
"                                                3@4@H.b.h.n.i.;+N O P Q i R S T U m n o V ^ r s t : >.5@                        ",
"                                                    6@v.w.m.n.+.].N O $.o.%.&.S T (.S.=.o <.-.( _ ;.< [ + 1                     ",
"                                                        {@w.m.3.+.5.x.^.$.o.%.j S l (._.=.z.<.-.( _ |@< [ } }                   ",
"                                                          7@!@8@3.4.5.6.P Q 7.8.j k l m f.o ,@q r 9.0.: u [ } s.9@              ",
"                                                            0@a@b@3.4.5.O P Q i 8.S c@U m n o p q r s t : W [ } | d@e@          ",
"                  f@g@h@i@j@j@x+x+x+w+x+'+'+'+'+'+'+'+'+'+'+x+8+k@b@l@@.N O j.Q %.N.S T *.m n o V /@( s ;.: >.} v X $           ",
"                m@n@o@p@q@r@s@t@u@v@w@x@y@y@x+x+x+'+'+'+'+'+'+'+y@z@A@B@].x.#.$.o.%.&.S T _@S.=.z.<.-.( O.;.< r.+ s.5@          ",
"                  C@D@E@F@G@H@I@J@K@L@M@N@O@P@Q@R@S@y@T@x@y@y@x+x+x+8+U@V@W@x.^.Q o.%.j e.l (.}@=.z.<.X@( _ : u [ } [.          ",
"                  Y@Z@D@`@ #.#+#@###$#%#&#*#=#-#;#>#,#'#)#!#~#{#]#^#a+/#8+(#W@O P Q i 8.j k l m }@o p ^ r s 0.: u [ _#          ",
"                  :#<#Z@D@`@ #.#+#[#}#|#1#2#3#4#5#6#X+*+7#8#9#0#a#b#c#d#e#f#g#h#O j.Q i R S i#U m n o V ^ r s t : >.            ",
"                  j#Y@<#D@k#`@ #l#+#[#m#|#n#2#3#o#W+6#X+*+3+K.L.F.R.p#w.m.3.l@@.N #.q#o.%.&.S T U S.r#o V -.( O.;.:             ",
"                    s#Y@C@D@k#t#.#u#@###m#|#v#2#w#o#p+2+X+x#3+V.Q.y#u.v.w.m.{.4.5.N ^.$.o.%.&.S l (._.=.:.V -.( _ z#            ",
"                    A#s#Y@Z@D@`@B#.#+#@###$#|#2#C#w#D#p+&+L+U.P.V.Q.t.u.v.B.>@E#4.5.6.P $.o.%.j e.l (._.=.z.<.r 9.              ",
"                      F#A#G#Z@D@`@ #.#+#[###$#H#v#I#4#5#6#X+L+U.P.Y.F.G.H.b.B.c.J#@.5.O P Q i 8.j k l m n o V ^ /               ",
"                      K#F#A#<#D@L#`@ #.#+#[#M#$#1#2#3#o#W+6#X+*+3+K.-+F.G.H.b.h.c.i.@.N O P Q %.N.S i#U m n o <.                ",
"                        N#F#Y@C@Z@k#`@O#u#@#[#m#|#v#2#3#o#W+2+X+*+3+K.L.F.u.l.b.m.n.+.].N #.$.o.%.&.S l U _.r#P#                ",
"                        Q#N#F#Y@C@D@k#B#O#u#@###m#|#v#C#w#D#p+2+q+U.r+V.Q.t.u.v.w.m.{.4.5.x.^.$.o.%.y.e.l (._.                  ",
"                          R#F#A#Y@Z@D@`@B#.#+#@###$#|#2#S#w#D#p+&+L+U.P.V.Q.t.H.v.B.c.3.4.5.6.P Q i 8.j e.l T#                  ",
"                            N#F#A#<#Z@D@`@B#.#+#[#}#$#H#2#S#w#W+6#&+X.U.=+-+F.G.H.b.~.c.3.U#d.O P Q i R S T                     ",
"                              V#F#Y@<#D@k#`@O#.#W#[#m#|#n#2#3#o#W+6#X+*+3+K.L.F.G.H.b.m.n.i.@.N O $.o.%.X#                      ",
"                                N#F#Y@<#D@k#`@.#u#@###m#|#v#2#w#o#p+2+X+*+r+V.L.F.u.v.w.m.n.+.].N #.M.Y#                        ",
"                                Z#F#F#Y@Z@D@`@B#O#+#@###$#|#2#C#w#D#p+&+q+U.P.V.Q.t.u.v.w.c.{.4.5.6.]@                          ",
"                                    s#A#`#Z@D@`@B#.#+#[###$#H#2#S#w#D#p+&+L+U.P.V.Q.[@H.b.B.c.3.4.N                             ",
"                                      F#A#<#Z@L#`@ #.#+#[#M#$#1#2#3# $W+6#X+*+3+=+-+F.G.H.b.h.c..$                              ",
"                                        s#A#<#D@k#`@O#u#W#[#m#|#v#2#3#o#W+2+X+*+3+K.L.F.G.H.+$@$                                ",
"                                          Q#Y@C@D@k#t#.#u#@###m#|#v#2#w##$p+2+q+$$P.V.Q.t.u.                                    ",
"                                            %$Y@C@D@`@B#.#+#@###$#|#v#C#w#D#p+2+&$U.P.V.A.                                      ",
"                                                *$Z@D@`@B#.#+#[###$#H#2#I#w#5#6#&+*+U.=$                                        ",
"                                                  -$Z@;$`@ #.#W#[#}#$#n#2#3#4#5#6#;@                                            ",
"                                                      D@k#`@.#u#>$##m#|#v#2#3#K+,$                                              ",
"                                                          ;$B#.#u#@###K@|#2#'$                                                  ",
"                                                            )$O#.#+#[###!$                                                      ",
"                                                                )$~$~$                                                          "};
