/* XPM */
static char * stim16_xpm[] = {
"16 16 132 2",
"  	c None",
". 	c #F0F0F0",
"+ 	c #EFEFEF",
"@ 	c #E6E6E7",
"# 	c #BEC0C7",
"$ 	c #045DFD",
"% 	c #065DFB",
"& 	c #3770D8",
"* 	c #BCBEC8",
"= 	c #E3E2E4",
"- 	c #CECDD1",
"; 	c #0C5EF5",
"> 	c #025AFB",
", 	c #356BCD",
"' 	c #6F8EC6",
") 	c #346BCE",
"! 	c #025BFB",
"~ 	c #055BFA",
"{ 	c #C8C8CC",
"] 	c #CDCCD0",
"^ 	c #005AFC",
"/ 	c #316AD5",
"( 	c #D5D5D8",
"_ 	c #D8D8DA",
": 	c #4073CE",
"< 	c #0059FD",
"[ 	c #C9C9CB",
"} 	c #E5E5E6",
"| 	c #0C5CF1",
"1 	c #2D68D9",
"2 	c #EAEAEB",
"3 	c #EEEEEE",
"4 	c #4375D0",
"5 	c #0559F7",
"6 	c #E3E3E4",
"7 	c #BCBCC1",
"8 	c #0159FD",
"9 	c #C8CCD5",
"0 	c #EBEDF0",
"a 	c #ECEEF0",
"b 	c #EDEEF0",
"c 	c #EEEFF0",
"d 	c #EDEFF0",
"e 	c #DBDCDF",
"f 	c #0459F6",
"g 	c #B5B8C3",
"h 	c #F1F1F1",
"i 	c #0058FF",
"j 	c #024EE0",
"k 	c #4D84F0",
"l 	c #0B60FA",
"m 	c #0D59E4",
"n 	c #2A62D3",
"o 	c #0257F8",
"p 	c #0054F6",
"q 	c #0052EF",
"r 	c #1C67EE",
"s 	c #1159E0",
"t 	c #095DFC",
"u 	c #0A57E5",
"v 	c #0054F5",
"w 	c #0049D3",
"x 	c #0456F6",
"y 	c #0457F6",
"z 	c #094DD0",
"A 	c #195FE2",
"B 	c #0057FF",
"C 	c #004CDD",
"D 	c #407AEC",
"E 	c #C3D3EC",
"F 	c #095DFD",
"G 	c #0D58E5",
"H 	c #0053F6",
"I 	c #004ADA",
"J 	c #0255F6",
"K 	c #3B73D5",
"L 	c #0056FD",
"M 	c #004DE3",
"N 	c #0558FA",
"O 	c #125FF6",
"P 	c #0956EC",
"Q 	c #0E55DE",
"R 	c #0052F5",
"S 	c #225FD5",
"T 	c #D1D1D6",
"U 	c #0056FE",
"V 	c #93ACDB",
"W 	c #ACC4EE",
"X 	c #C4D3ED",
"Y 	c #A7C0EE",
"Z 	c #A7C1EE",
"` 	c #AEC4EA",
" .	c #AAC3EE",
"..	c #A6C0EE",
"+.	c #ADBFDF",
"@.	c #0156FC",
"#.	c #B3B8C6",
"$.	c #EBEAEB",
"%.	c #0C5BED",
"&.	c #3D72E3",
"*.	c #EDEDEE",
"=.	c #5481DC",
"-.	c #0555F3",
";.	c #E4E3E5",
">.	c #0055F5",
",.	c #4C7EE7",
"'.	c #E5E5E7",
").	c #E8E7E9",
"!.	c #5A87E3",
"~.	c #0054F9",
"{.	c #D8D8DB",
"].	c #E8E6E9",
"^.	c #0B59EB",
"/.	c #0557FE",
"(.	c #5484E9",
"_.	c #98B0E5",
":.	c #9DB4E4",
"<.	c #638DE7",
"[.	c #0A5AFC",
"}.	c #0655EE",
"|.	c #DFDFE1",
"1.	c #EDE8EC",
"2.	c #DEDCE1",
"3.	c #0052EE",
"4.	c #0253ED",
"5.	c #3874E2",
"6.	c #D0D0DA",
"7.	c #EBE6EA",
"8.	c #DFD9DE",
"9.	c #DED8DD",
"0.	c #DDD7DC",
"a.	c #E0DADF",
"            . . + .             ",
"        @ #   $ % & * =         ",
"      - ; > , ' ' ) ! ~ { .     ",
"    ] ^ / ( . . . . _ : < [     ",
"  } | 1 2 . . . . . . 3 4 5 6   ",
"  7 8 9 0 a b . c c c d e f g   ",
"h   i i i j k . l m i i i i n . ",
". o p q r s i i t u v i w i x . ",
". y z A B C D E F G H B I B J h ",
". K B L B M N O P Q R B I B S h ",
"  T U V W X Y Z Z `  ...+.@.#.  ",
"  $.%.&.*.. . . . . . + =.-.}   ",
"    ;.>.,.'.. . . . ).!.~.{.    ",
"    + ].^./.(._.:.<.[.}.|.+     ",
"        1.2.  3.4.5.6.7.        ",
"            8.9.0.a.            "};
