/* XPM */
static char * stim32_xpm[] = {
"32 32 713 2",
"  	c None",
". 	c #E0DCDC",
"+ 	c #E5E1E0",
"@ 	c #E8E4E4",
"# 	c #E9E7E6",
"$ 	c #E9E7E7",
"% 	c #E8E4E3",
"& 	c #E4E0DF",
"* 	c #DEDAD9",
"= 	c #E3DEDD",
"- 	c #E6E2E2",
"; 	c #DDE1E5",
"> 	c #C8DBE5",
", 	c #AFD4E5",
"' 	c #99CEE6",
") 	c #8ECCE7",
"! 	c #9ACFE6",
"~ 	c #AFD5E6",
"{ 	c #C8DCE5",
"] 	c #DDE0E4",
"^ 	c #E4E0E0",
"/ 	c #DDD8D7",
"( 	c #DDDAD9",
"_ 	c #E3E1E2",
": 	c #CDDBE3",
"< 	c #97CCE4",
"[ 	c #5DBEE8",
"} 	c #30B6ED",
"| 	c #18B2F2",
"1 	c #0EB2F4",
"2 	c #0CB2F4",
"3 	c #18B3F2",
"4 	c #30B7EE",
"5 	c #5DC0E9",
"6 	c #98CDE5",
"7 	c #E0DEDF",
"8 	c #E1DDDC",
"9 	c #D7DCE0",
"0 	c #97CAE1",
"a 	c #46B7E9",
"b 	c #13B0F2",
"c 	c #0BB1F6",
"d 	c #1FB5F4",
"e 	c #3DBCF1",
"f 	c #57C2EF",
"g 	c #63C4EE",
"h 	c #63C4ED",
"i 	c #55C1EE",
"j 	c #3BBBF0",
"k 	c #1DB5F3",
"l 	c #0AB1F5",
"m 	c #13B1F2",
"n 	c #46B9EA",
"o 	c #98CCE3",
"p 	c #D6DCE0",
"q 	c #DCD7D7",
"r 	c #DFDCDC",
"s 	c #C2D4DE",
"t 	c #66BBE3",
"u 	c #16ADF0",
"v 	c #0EAFF5",
"w 	c #3EBAF0",
"x 	c #80CAEB",
"y 	c #B6D7E8",
"z 	c #D2DFE6",
"A 	c #DEE3E6",
"B 	c #E2E4E6",
"C 	c #DEE2E6",
"D 	c #D1DEE6",
"E 	c #B3D6E6",
"F 	c #7CC8E9",
"G 	c #3ABAEF",
"H 	c #0CB2F5",
"I 	c #16B2F1",
"J 	c #68C0E5",
"K 	c #C4D7E1",
"L 	c #DBD8D8",
"M 	c #DDDADA",
"N 	c #BBD0DC",
"O 	c #4DB3E4",
"P 	c #0BABF3",
"Q 	c #27B2F2",
"R 	c #7EC7E9",
"S 	c #E4E2E4",
"T 	c #E9E4E3",
"U 	c #E9E5E4",
"V 	c #EAE5E4",
"W 	c #E4E3E4",
"X 	c #C5DAE4",
"Y 	c #78C6E8",
"Z 	c #23B5F1",
"` 	c #0AB1F4",
" .	c #4FBBE7",
"..	c #BED4DF",
"+.	c #DAD6D6",
"@.	c #DAD6D5",
"#.	c #BECFD9",
"$.	c #4BB1E2",
"%.	c #08A8F3",
"&.	c #3BB5EE",
"*.	c #A8D0E4",
"=.	c #DEDFE1",
"-.	c #E6E2E1",
";.	c #E5E1E1",
">.	c #E6E3E3",
",.	c #E8E3E3",
"'.	c #E9E4E4",
").	c #E0E1E3",
"!.	c #A4D0E3",
"~.	c #35B8ED",
"{.	c #07B2F5",
"].	c #4EBBE7",
"^.	c #C1D5DE",
"/.	c #D5D1D1",
"(.	c #D2CFCE",
"_.	c #CED2D6",
":.	c #62B3DD",
"<.	c #0AA6F2",
"[.	c #3AB2ED",
"}.	c #AED0E1",
"|.	c #E1DEDE",
"1.	c #E2DEDE",
"2.	c #E2DFDF",
"3.	c #E3DFDF",
"4.	c #E3E0E0",
"5.	c #E4E1E1",
"6.	c #E5E2E2",
"7.	c #E7E3E2",
"8.	c #ABD0E2",
"9.	c #34B7EC",
"0.	c #0AB2F3",
"a.	c #66C0E4",
"b.	c #D1D7DB",
"c.	c #D4D2D2",
"d.	c #8EBCD6",
"e.	c #14A3EC",
"f.	c #25ABEF",
"g.	c #A4CADF",
"h.	c #DDDADB",
"i.	c #DFDBDB",
"j.	c #DEDBDB",
"k.	c #E0DDDD",
"l.	c #E1DDDD",
"m.	c #E3DFE0",
"n.	c #E2E0E1",
"o.	c #A0CCE0",
"p.	c #20B4EF",
"q.	c #16B3F0",
"r.	c #95C9DF",
"s.	c #D6D4D5",
"t.	c #CFCBCA",
"u.	c #BCC8D1",
"v.	c #40A7E0",
"w.	c #0EA3F2",
"x.	c #79BDE1",
"y.	c #D8D6D8",
"z.	c #DED8D7",
"A.	c #DDD8D8",
"B.	c #DDD9D8",
"C.	c #DDD9D9",
"D.	c #E0DCDB",
"E.	c #E1DCDC",
"F.	c #E2DDDC",
"G.	c #E2DEDD",
"H.	c #E3DEDE",
"I.	c #E4DFDE",
"J.	c #E5E0DF",
"K.	c #E6E1E0",
"L.	c #DDDDDE",
"M.	c #73C2E2",
"N.	c #0CB2F3",
"O.	c #45B9E8",
"P.	c #C4D3DB",
"Q.	c #CBC6C5",
"R.	c #CFCCCC",
"S.	c #88B6D2",
"T.	c #109FED",
"U.	c #26A5EB",
"V.	c #92BCD5",
"W.	c #B1C4D1",
"X.	c #AEC4D2",
"Y.	c #B5C5D1",
"Z.	c #BEC7CF",
"`.	c #B0C5D2",
" +	c #C4CCD2",
".+	c #D9D6D6",
"++	c #D5D5D7",
"@+	c #BDCCD6",
"#+	c #B6CBD8",
"$+	c #BCCCD6",
"%+	c #BBCDD7",
"&+	c #B6CDD9",
"*+	c #B6CEDA",
"=+	c #B7CFDB",
"-+	c #B7D0DC",
";+	c #B9D0DB",
">+	c #92C5DB",
",+	c #22B3ED",
"'+	c #12B3F2",
")+	c #92C8DF",
"!+	c #D3D0D0",
"~+	c #C4C7CA",
"{+	c #52A7D8",
"]+	c #029DF4",
"^+	c #0D9FF2",
"/+	c #23A0E7",
"(+	c #26A0E6",
"_+	c #25A0E6",
":+	c #33A0DF",
"<+	c #54A1CF",
"[+	c #2FA0E0",
"}+	c #28A2E4",
"|+	c #7CB6D6",
"1+	c #D4D3D4",
"2+	c #DBD6D6",
"3+	c #BDCAD2",
"4+	c #48ACDC",
"5+	c #28ABE9",
"6+	c #41AADD",
"7+	c #41ABDC",
"8+	c #29AEE9",
"9+	c #29B0EB",
"0+	c #28B1EB",
"a+	c #28B2EB",
"b+	c #29B3EB",
"c+	c #24B3EC",
"d+	c #0CB3F4",
"e+	c #02B3F7",
"f+	c #5BBDE5",
"g+	c #CDD2D5",
"h+	c #C3BFBE",
"i+	c #ADBDC8",
"j+	c #2A9DE1",
"k+	c #009CF8",
"l+	c #009DF8",
"m+	c #009DF7",
"n+	c #009DF9",
"o+	c #099BF1",
"p+	c #2998D9",
"q+	c #099DEF",
"r+	c #03A0F5",
"s+	c #64B1DB",
"t+	c #CCCED0",
"u+	c #D3D1D1",
"v+	c #B3C5CF",
"w+	c #32A8E1",
"x+	c #0FA8F0",
"y+	c #2AA7E2",
"z+	c #1FA8E6",
"A+	c #00AEF9",
"B+	c #00AFFA",
"C+	c #00B0F9",
"D+	c #00B1FA",
"E+	c #00B2FA",
"F+	c #00B3FA",
"G+	c #00B4FA",
"H+	c #30B6EC",
"I+	c #BBCFD9",
"J+	c #C4C0BF",
"K+	c #95B3C7",
"L+	c #1598E8",
"M+	c #009BF8",
"N+	c #089AF2",
"O+	c #259AE2",
"P+	c #1B9BE8",
"Q+	c #229CE4",
"R+	c #379AD4",
"S+	c #0A9DEF",
"T+	c #01A1F7",
"U+	c #32A6E4",
"V+	c #65AFD7",
"W+	c #69B0D6",
"X+	c #71ADCE",
"Y+	c #45A4D5",
"Z+	c #2FA7E1",
"`+	c #41A6D8",
" @	c #24A8E4",
".@	c #0FAEF3",
"+@	c #19AEEE",
"@@	c #01B1F9",
"#@	c #08B1F6",
"$@	c #17B0EE",
"%@	c #03B3F8",
"&@	c #00B5FA",
"*@	c #19B4F1",
"=@	c #A4CBDB",
"-@	c #C9C6C5",
";@	c #C1BDBC",
">@	c #80AAC7",
",@	c #0B95EC",
"'@	c #0098F7",
")@	c #0099F7",
"!@	c #0798F1",
"~@	c #2D98DB",
"{@	c #3399D8",
"]@	c #409BD3",
"^@	c #4B9CCC",
"/@	c #0B9CEE",
"(@	c #00A1F8",
"_@	c #01A1F6",
":@	c #03A2F4",
"<@	c #04A2F3",
"[@	c #27A0DF",
"}@	c #1DA2E4",
"|@	c #06A8F4",
"1@	c #22A5E4",
"2@	c #1FA7E5",
"3@	c #1CACEB",
"4@	c #31ABE1",
"5@	c #02B0F8",
"6@	c #10B0F1",
"7@	c #2DACE3",
"8@	c #06B2F6",
"9@	c #90C4DC",
"0@	c #CBC7C7",
"a@	c #BDBABA",
"b@	c #73A3C6",
"c@	c #0891EE",
"d@	c #0095F7",
"e@	c #0095F6",
"f@	c #0295F4",
"g@	c #0397F4",
"h@	c #0E96EA",
"i@	c #2E95D3",
"j@	c #0A9BEE",
"k@	c #00A0F8",
"l@	c #07A1F4",
"m@	c #10A3F1",
"n@	c #11A4F0",
"o@	c #2EA1DD",
"p@	c #19A2E6",
"q@	c #00A9F9",
"r@	c #1DA6E7",
"s@	c #1EA5E5",
"t@	c #00ADF8",
"u@	c #1CABEA",
"v@	c #31AAE0",
"w@	c #01AFF8",
"x@	c #10AEF1",
"y@	c #2DAAE1",
"z@	c #06B0F6",
"A@	c #0AAFF5",
"B@	c #85C0DC",
"C@	c #CBC8C8",
"D@	c #BBB7B7",
"E@	c #72A2C4",
"F@	c #0890ED",
"G@	c #0F92EC",
"H@	c #1F92E1",
"I@	c #2093E0",
"J@	c #1593E8",
"K@	c #0196F6",
"L@	c #0896F0",
"M@	c #2793D6",
"N@	c #0999EE",
"O@	c #029DF6",
"P@	c #34A0DD",
"Q@	c #51A4D3",
"R@	c #4EA5D6",
"S@	c #56A3CD",
"T@	c #1CA1E5",
"U@	c #00A8F9",
"V@	c #1DA4E6",
"W@	c #1EA4E4",
"X@	c #00ABF9",
"Y@	c #1CA8EA",
"Z@	c #30A7DF",
"`@	c #01ADF8",
" #	c #10ACF0",
".#	c #2CA7E0",
"+#	c #06AEF5",
"@#	c #00B0FA",
"##	c #85C1DC",
"$#	c #B6B3B2",
"%#	c #7AA3C1",
"&#	c #0B90EB",
"*#	c #0E91EB",
"=#	c #2190DD",
"-#	c #2C90D4",
";#	c #3290D0",
">#	c #0595F1",
",#	c #0897F0",
"'#	c #049DF4",
")#	c #329AD6",
"!#	c #259CDE",
"~#	c #14A0EB",
"{#	c #329DD8",
"]#	c #299FDE",
"^#	c #15A5ED",
"/#	c #2CA2DE",
"(#	c #20A4E3",
"_#	c #1BA8EA",
":#	c #2CA8E0",
"<#	c #06AFF6",
"[#	c #00B2FB",
"}#	c #0FB2F5",
"|#	c #91C4DC",
"1#	c #C8C5C5",
"2#	c #B0ADAC",
"3#	c #8AA7BC",
"4#	c #1390E6",
"5#	c #0093F7",
"6#	c #0192F6",
"7#	c #0791EF",
"8#	c #1392E4",
"9#	c #0297F4",
"0#	c #0898F0",
"a#	c #099AEE",
"b#	c #029EF6",
"c#	c #139CE8",
"d#	c #08A0F1",
"e#	c #00A4FA",
"f#	c #15A2EA",
"g#	c #2FA2DD",
"h#	c #2EA4E0",
"i#	c #3EA2D6",
"j#	c #22A5E3",
"k#	c #00ADFA",
"l#	c #1BAAEB",
"m#	c #30A8DF",
"n#	c #2CA9E1",
"o#	c #06B1F6",
"p#	c #00B5FB",
"q#	c #00B4FB",
"r#	c #1BB4F3",
"s#	c #A4C9DA",
"t#	c #C3C0BF",
"u#	c #A9A5A4",
"v#	c #9CABB7",
"w#	c #2691DB",
"x#	c #0092F7",
"y#	c #0094F7",
"z#	c #0096F6",
"A#	c #0998EF",
"B#	c #2994D5",
"C#	c #009FF8",
"D#	c #00A2F8",
"E#	c #00A4F9",
"F#	c #00A5F8",
"G#	c #02A6F6",
"H#	c #03A7F6",
"I#	c #1DA3E5",
"J#	c #1CA5E5",
"K#	c #1AAAEB",
"L#	c #2FA9DF",
"M#	c #01B0F9",
"N#	c #10AFF2",
"O#	c #2CAAE1",
"P#	c #05B2F6",
"Q#	c #00B6FB",
"R#	c #32B9EE",
"S#	c #B9CED6",
"T#	c #BCB9B9",
"U#	c #AAADB1",
"V#	c #4997CC",
"W#	c #0291F2",
"X#	c #1094ED",
"Y#	c #2E9AE1",
"Z#	c #329DE1",
"`#	c #319FE2",
" $	c #41A2DD",
".$	c #68A5CA",
"+$	c #41A2DB",
"@$	c #33A5E5",
"#$	c #34A7E6",
"$$	c #34A8E6",
"%$	c #34AAE7",
"&$	c #35ACE8",
"*$	c #34ADE9",
"=$	c #35AFE9",
"-$	c #49ADDD",
";$	c #4AADDC",
">$	c #35B3EB",
",$	c #4CB3E1",
"'$	c #65B4D8",
")$	c #39B6EA",
"!$	c #43B6E7",
"~$	c #64B6D9",
"{$	c #3AB7E9",
"]$	c #11B7F5",
"^$	c #03B7F9",
"/$	c #5EC1E8",
"($	c #C9CED1",
"_$	c #AEABAB",
":$	c #75A0BE",
"<$	c #0E8FE8",
"[$	c #2193E1",
"}$	c #85A7BF",
"|$	c #A7B4BD",
"1$	c #A6B5C0",
"2$	c #ADB8C0",
"3$	c #B7BBBF",
"4$	c #AFBAC2",
"5$	c #ACBCC6",
"6$	c #ADBDC7",
"7$	c #AEBFC8",
"8$	c #B0C0CA",
"9$	c #B1C2CB",
"0$	c #B2C3CC",
"a$	c #B3C4CE",
"b$	c #B7C6CD",
"c$	c #B8C7CF",
"d$	c #B6C9D2",
"e$	c #BBCAD2",
"f$	c #C3CCD1",
"g$	c #BBCDD5",
"h$	c #BCCDD6",
"i$	c #C7CFD4",
"j$	c #99C3D6",
"k$	c #24B6EC",
"l$	c #15B9F6",
"m$	c #93CAE1",
"n$	c #CBC9C8",
"o$	c #A4A09F",
"p$	c #9DA9B2",
"q$	c #3694D3",
"r$	c #0991EB",
"s$	c #5B9CC6",
"t$	c #B2B3B5",
"u$	c #BCB9B8",
"v$	c #BEBCBB",
"w$	c #C0BEBD",
"x$	c #C2C0BF",
"y$	c #C4C1C0",
"z$	c #C5C3C2",
"A$	c #C7C5C4",
"B$	c #C8C6C5",
"C$	c #CAC8C7",
"D$	c #CBC9C9",
"E$	c #CDCBCA",
"F$	c #CECCCC",
"G$	c #D0CDCD",
"H$	c #D1CFCE",
"I$	c #D2D0CF",
"J$	c #D4D1D1",
"K$	c #D6D3D2",
"L$	c #CCCFD1",
"M$	c #69BBDB",
"N$	c #0BB7F5",
"O$	c #4AC1ED",
"P$	c #C0D0D8",
"Q$	c #BFBBBA",
"R$	c #A9A8A9",
"S$	c #759FBC",
"T$	c #1192E6",
"U$	c #1993E2",
"V$	c #7DA3BC",
"W$	c #B6B6B6",
"X$	c #BBB9B9",
"Y$	c #BCBABA",
"Z$	c #BDBDBC",
"`$	c #BFBEBE",
" %	c #C0C0C0",
".%	c #C2C1C1",
"+%	c #C4C3C3",
"@%	c #C5C5C5",
"#%	c #C7C7C7",
"$%	c #C9C8C8",
"%%	c #CACACA",
"&%	c #CCCBCB",
"*%	c #CDCCCD",
"=%	c #CFCECE",
"-%	c #D0CFCF",
";%	c #D2D1D1",
">%	c #D0D0D1",
",%	c #91C1D4",
"'%	c #1CB7EE",
")%	c #19BDF5",
"!%	c #97CDE2",
"~%	c #CBCBCC",
"{%	c #A3A9AE",
"]%	c #519AC9",
"^%	c #0894EC",
"/%	c #2796DB",
"(%	c #85A6BA",
"_%	c #BCBBBB",
":%	c #BEBCBC",
"<%	c #BFBFBF",
"[%	c #C1C0C0",
"}%	c #C3C2C2",
"|%	c #C4C4C4",
"1%	c #C6C6C6",
"2%	c #C8C7C7",
"3%	c #C9C9C9",
"4%	c #CBCACA",
"5%	c #CCCCCC",
"6%	c #CECDCD",
"7%	c #CFCFCF",
"8%	c #98C2D3",
"9%	c #2DB8E8",
"0%	c #0CBCF7",
"a%	c #6CC8E9",
"b%	c #C9D1D4",
"c%	c #A3A1A0",
"d%	c #97A8B3",
"e%	c #3F99D2",
"f%	c #0596EE",
"g%	c #2798DB",
"h%	c #7DA5BD",
"i%	c #B1B4B7",
"j%	c #BCBAB9",
"k%	c #BDBCBB",
"l%	c #BEBEBE",
"m%	c #C0BFBF",
"n%	c #C1C1C1",
"o%	c #C3C2C3",
"p%	c #C5C4C5",
"q%	c #C7C6C6",
"r%	c #C8C8C8",
"s%	c #CACAC9",
"t%	c #CDCBCB",
"u%	c #CFCDCC",
"v%	c #C6CACC",
"w%	c #8EBFD2",
"x%	c #2DB7E8",
"y%	c #08BBF7",
"z%	c #55C5ED",
"A%	c #BDD3DB",
"B%	c #C6C3C2",
"C%	c #A6A4A4",
"D%	c #95A8B5",
"E%	c #3F9BD3",
"F%	c #189AE3",
"G%	c #5AA0C8",
"H%	c #98AEBA",
"I%	c #B5B7B9",
"J%	c #BFBEBD",
"K%	c #C1C0BF",
"L%	c #C2C2C1",
"M%	c #C6C5C5",
"N%	c #C4C7C9",
"O%	c #A8C1CC",
"P%	c #64B8D8",
"Q%	c #1CB6ED",
"R%	c #0DBCF7",
"S%	c #B9D2DB",
"T%	c #C9C7C7",
"U%	c #A6A4A5",
"V%	c #99AAB6",
"W%	c #54A1CE",
"X%	c #139DEA",
"Y%	c #099DEE",
"Z%	c #299EDD",
"`%	c #5CA4CA",
" &	c #89ADC0",
".&	c #A4B4BD",
"+&	c #B1B9BD",
"@&	c #B7BCBF",
"#&	c #B9BEC1",
"$&	c #B6BFC3",
"%&	c #ABBDC5",
"&&	c #92B9CA",
"*&	c #64B4D5",
"=&	c #2DB3E6",
"-&	c #0AB7F5",
";&	c #1ABDF5",
">&	c #6BC7E9",
",&	c #BBD1D9",
"'&	c #C7C7C6",
")&	c #A4A2A1",
"!&	c #A6ADB1",
"~&	c #7CAAC4",
"{&	c #3CA3DB",
"]&	c #11A1ED",
"^&	c #07A1F0",
"/&	c #13A2E9",
"(&	c #29A4DF",
"_&	c #3DA7D9",
":&	c #48A9D6",
"<&	c #49ABD8",
"[&	c #3FADDC",
"}&	c #2BAEE3",
"|&	c #15B0ED",
"1&	c #09B4F5",
"2&	c #16B9F5",
"3&	c #49C1ED",
"4&	c #95CBDF",
"5&	c #C5CDD1",
"6&	c #AAAAAB",
"7&	c #A1B0B9",
"8&	c #7DAEC9",
"9&	c #51ABD9",
"0&	c #2DA9E6",
"a&	c #18A9EE",
"b&	c #0EAAF2",
"c&	c #0BACF3",
"d&	c #0CADF4",
"e&	c #0FB0F4",
"f&	c #1AB4F2",
"g&	c #5DBFE6",
"h&	c #90C7DD",
"i&	c #BACAD2",
"j&	c #C4C5C5",
"k&	c #A19F9D",
"l&	c #ADACAC",
"m&	c #ADB2B6",
"n&	c #A2B5C0",
"o&	c #93B6C8",
"p&	c #84B7D0",
"q&	c #7DB8D4",
"r&	c #7FBBD5",
"s&	c #8ABED5",
"t&	c #9CC2D2",
"u&	c #B0C4CD",
"v&	c #BEC4C7",
"w&	c #A3A1A1",
"x&	c #ABA9A9",
"y&	c #B2B0B0",
"z&	c #B6B5B5",
"A&	c #B8B7B7",
"B&	c #B7B6B5",
"C&	c #B4B2B1",
"D&	c #AEACAC",
"                        . + @ # $ % & *                         ",
"                  = - ; > , ' ) ) ! ~ { ] ^ /                   ",
"              ( _ : < [ } | 1 2 2 1 3 4 5 6 : 7                 ",
"            8 9 0 a b c d e f g h i j k l m n o p q             ",
"          r s t u v w x y z A B B C D E F G H I J K L           ",
"        M N O P Q R > S T @ @ @ @ @ U V W X Y Z `  ...+.        ",
"      @.#.$.%.&.*.=.-.;.;.;.;.;.;.- - >.,.'.).!.~.{.].^./.      ",
"    (._.:.<.[.}.|.1.1.1.1.1.1.2.3.4.^ 5.;.6.7.6.8.9.0.a.b.      ",
"    c.d.e.f.g.h.i.j.j.j.j.i.r k.l.|.1.3.m.4.5.;.n.o.p.q.r.s.    ",
"  t.u.v.w.x.y.z.A./ A.B.B.C.M j.D.E.F.G.H.I.& J.K.L.M.N.O.P.Q.  ",
"  R.S.T.U.V.W.X.Y.Z.W.`. +.+L ++@+#+$+%+&+*+*+=+-+;+>+,+'+)+!+  ",
"  ~+{+]+^+/+(+_+:+<+[+}+|+1+2+3+4+5+6+7+8+9+0+a+a+b+c+d+e+f+g+  ",
"h+i+j+k+l+l+m+n+o+p+q+r+s+t+u+v+w+x+y+z+A+B+C+D+E+F+F+G+G+H+I+J+",
"h+K+L+M+M+N+O+P+Q+R+S+T+U+V+W+X+Y+Z+`+ @A+.@+@@@#@$@%@G+&@*@=@-@",
";@>@,@'@)@!@~@{@]@^@/@(@_@:@<@[@}@|@1@2@A+3@4@5@6@7@8@G+G+1 9@0@",
"a@b@c@d@d@e@f@g@h@i@j@k@l@m@n@o@p@q@r@s@t@u@v@w@x@y@z@E+D+A@B@C@",
"D@E@F@G@H@I@J@K@L@M@N@O@P@Q@R@S@T@U@V@W@X@Y@Z@`@ #.#+#@#@#A@##C@",
"$#%#&#*#=#-#;#>#,#M@N@'#)#!#~#{#]#^#/#(#X@_#Z@`@ #:#<#[#[#}#|#1#",
"2#3#4#5#6#7#8#9#0#M@a#b#c#d#e#f#g#h#i#j#k#l#m#w@x@n#o#p#q#r#s#t#",
"u#v#w#x#5#y#z#'@A#B#a#C#(@D#E#F#G#H#I#J#k#K#L#M#N#O#P#Q#Q#R#S#T#",
"  U#V#W#X#Y#Z#`# $.$+$@$#$$$%$&$*$=$-$;$>$,$'$)$!$~${$]$^$/$($  ",
"  _$:$<$[$}$|$1$2$3$4$5$6$7$8$9$0$a$b$c$d$e$f$g$h$i$j$k$l$m$n$  ",
"  o$p$q$r$s$t$u$a@v$w$x$y$z$A$B$C$D$E$F$G$H$I$J$K$L$M$N$O$P$Q$  ",
"    R$S$T$U$V$W$X$Y$Z$`$ %.%+%@%#%$%%%&%*%=%-%;%>%,%'%)%!%~%    ",
"      {%]%^%/%(%W$X$_%:%<%[%}%|%1%2%3%4%5%6%-%7%8%9%0%a%b%      ",
"      c%d%e%f%g%h%i%j%k%l%m%n%o%p%q%r%s%t%u%v%w%x%y%z%A%B%      ",
"        C%D%E%N@F%G%H%I%k%J%K%L%+%M%2%$%N%O%P%Q%R%z%S%T%        ",
"          U%V%W%X%Y%Z%`% &.&+&@&#&$&%&&&*&=&-&;&>&,&'&          ",
"            )&!&~&{&]&^&/&(&_&:&<&[&}&|&1&2&3&4&5&[%            ",
"                6&7&8&9&0&a&b&c&d&e&f&R#g&h&i&j&                ",
"                  k&l&m&n&o&p&q&r&s&t&u&v&m%$#                  ",
"                        w&x&y&z&A&B&C&D&                        "};
