/* XPM */
static char * stim48_xpm[] = {
"48 48 545 2",
"  	c None",
". 	c #F0F0F0",
"+ 	c #EFEFEF",
"@ 	c #F1F1F1",
"# 	c #EDEDED",
"$ 	c #E1E1E2",
"% 	c #D7D6D9",
"& 	c #D0D0D3",
"* 	c #D5D5D8",
"= 	c #DDDDDF",
"- 	c #E7E6E7",
"; 	c #EDEDEE",
"> 	c #D0CFD2",
", 	c #B7B6BC",
"' 	c #A7A6AE",
") 	c #929099",
"! 	c #95959C",
"~ 	c #AAA8AF",
"{ 	c #BABABE",
"] 	c #D4D4D6",
"^ 	c #E8E8E9",
"/ 	c #BDBCC0",
"( 	c #99989F",
"_ 	c #005CFF",
": 	c #005BFF",
"< 	c #005AFF",
"[ 	c #99979F",
"} 	c #B8B8BD",
"| 	c #E2E2E3",
"1 	c #BFBFC3",
"2 	c #94939B",
"3 	c #005BFE",
"4 	c #B4B4B9",
"5 	c #E6E6E7",
"6 	c #DAD9DB",
"7 	c #9E9CA4",
"8 	c #005DFF",
"9 	c #015CFE",
"0 	c #025DFC",
"a 	c #015DFC",
"b 	c #95949C",
"c 	c #CBCACE",
"d 	c #C4C4C7",
"e 	c #055DF5",
"f 	c #1E60D0",
"g 	c #3F69B2",
"h 	c #5A7199",
"i 	c #6C778D",
"j 	c #767B8B",
"k 	c #757A89",
"l 	c #6B778C",
"m 	c #59729B",
"n 	c #3D6AB5",
"o 	c #1D61D3",
"p 	c #045DF8",
"q 	c #0059FC",
"r 	c #B5B4B9",
"s 	c #EEEDEE",
"t 	c #B9B9BD",
"u 	c #005BFC",
"v 	c #105DE4",
"w 	c #476AAB",
"x 	c #7B7F8E",
"y 	c #A8A7AD",
"z 	c #C5C5C8",
"A 	c #DCDCDE",
"B 	c #EAE9EA",
"C 	c #EAEAEB",
"D 	c #DBDBDD",
"E 	c #C3C2C6",
"F 	c #A5A4AA",
"G 	c #797F8F",
"H 	c #476DAC",
"I 	c #1460E0",
"J 	c #0059FE",
"K 	c #ECECEC",
"L 	c #B9B8BD",
"M 	c #005AFD",
"N 	c #075BF2",
"O 	c #456AAD",
"P 	c #8D8E98",
"Q 	c #C7C6CA",
"R 	c #EBEBEC",
"S 	c #5271A4",
"T 	c #0F5FE8",
"U 	c #A9A8AF",
"V 	c #EEEEEE",
"W 	c #C3C3C7",
"X 	c #195EDA",
"Y 	c #737C96",
"Z 	c #BEBEC2",
"` 	c #C9C8CC",
" .	c #848896",
"..	c #2E67C6",
"+.	c #015BFE",
"@.	c #005AFE",
"#.	c #B5B5BA",
"$.	c #D9D9DB",
"%.	c #898991",
"&.	c #0059FF",
"*.	c #2460CE",
"=.	c #8B8D9A",
"-.	c #DADADC",
";.	c #E5E5E6",
">.	c #A09FA7",
",.	c #446DB4",
"'.	c #025BFD",
").	c #CDCDD0",
"!.	c #9B99A1",
"~.	c #0059FA",
"{.	c #2260D2",
"].	c #91929E",
"^.	c #E3E3E4",
"/.	c #EDECED",
"(.	c #ABAAB0",
"_.	c #466EB4",
":.	c #015AFE",
"<.	c #0058FD",
"[.	c #92929A",
"}.	c #BEBDC1",
"|.	c #125BE4",
"1.	c #878A9B",
"2.	c #A4A3AA",
"3.	c #3369C6",
"4.	c #0057F9",
"5.	c #E9E8E9",
"6.	c #8B8B91",
"7.	c #0059FD",
"8.	c #0259F9",
"9.	c #68779D",
"0.	c #E7E7E7",
"a.	c #8C8F9C",
"b.	c #135FE5",
"c.	c #87878F",
"d.	c #0058F6",
"e.	c #3461BC",
"f.	c #D1D0D3",
"g.	c #5F75A1",
"h.	c #015AFD",
"i.	c #0057FA",
"j.	c #B4B3B8",
"k.	c #908F96",
"l.	c #0657EE",
"m.	c #7C7F90",
"n.	c #A1A0A7",
"o.	c #1E5ECF",
"p.	c #8D8C94",
"q.	c #D0D0D2",
"r.	c #0058FF",
"s.	c #1454D4",
"t.	c #6489CF",
"u.	c #8FB3F6",
"v.	c #8EB4F6",
"w.	c #8BB3F6",
"x.	c #91B6F6",
"y.	c #ABC6F4",
"z.	c #DEE6F1",
"A.	c #94B9F5",
"B.	c #95B8F6",
"C.	c #95B9F6",
"D.	c #A4C0F2",
"E.	c #F0EFF0",
"F.	c #C2D6F2",
"G.	c #9EBFF5",
"H.	c #A3C0F5",
"I.	c #A3C2F5",
"J.	c #B4CBEE",
"K.	c #9BBCF5",
"L.	c #9BBDF5",
"M.	c #9CBDF5",
"N.	c #9DBEF5",
"O.	c #9DBFF5",
"P.	c #9FBFF5",
"Q.	c #89A8E0",
"R.	c #2D5CB6",
"S.	c #0054F8",
"T.	c #CFCFD1",
"U.	c #B2B1B5",
"V.	c #0058F8",
"W.	c #2E63CA",
"X.	c #1D62ED",
"Y.	c #6E9FF5",
"Z.	c #1C5CCB",
"`.	c #0056FB",
" +	c #B1B0B5",
".+	c #9A999F",
"++	c #003EB8",
"@+	c #1C61EB",
"#+	c #6D9EF5",
"$+	c #1C59C5",
"%+	c #9A99A1",
"&+	c #807F87",
"*+	c #0058FC",
"=+	c #003DB3",
"-+	c #0058FE",
";+	c #185EEB",
">+	c #D8E0ED",
",+	c #DDE6F1",
"'+	c #E1E7F1",
")+	c #7FA2DC",
"!+	c #2262CE",
"~+	c #2361CE",
"{+	c #2261CE",
"]+	c #2E62BB",
"^+	c #85838C",
"/+	c #DEDEDF",
"(+	c #0057FE",
"_+	c #05348C",
":+	c #2167DE",
"<+	c #1C63DD",
"[+	c #1961DE",
"}+	c #1547A3",
"|+	c #055CFF",
"1+	c #045CFF",
"2+	c #035BFF",
"3+	c #5691F5",
"4+	c #085EFE",
"5+	c #095EFE",
"6+	c #095FFE",
"7+	c #1958C6",
"8+	c #003BAD",
"9+	c #0057FB",
"0+	c #004BDE",
"a+	c #0046C7",
"b+	c #0054F1",
"c+	c #D3D2D5",
"d+	c #0050EB",
"e+	c #0650E1",
"f+	c #2771FA",
"g+	c #216EFA",
"h+	c #3176F8",
"i+	c #6986BF",
"j+	c #0159FF",
"k+	c #015AFF",
"l+	c #508CF4",
"m+	c #1756C4",
"n+	c #0038A6",
"o+	c #0057FC",
"p+	c #004ADB",
"q+	c #0043BC",
"r+	c #0054F5",
"s+	c #D9D8DA",
"t+	c #0056F4",
"u+	c #0057FF",
"v+	c #0048D4",
"w+	c #0039A6",
"x+	c #518CF4",
"y+	c #1957C4",
"z+	c #0037A5",
"A+	c #0049DB",
"B+	c #0044C3",
"C+	c #0053F3",
"D+	c #D2D2D4",
"E+	c #D3D3D5",
"F+	c #0056F6",
"G+	c #0057FD",
"H+	c #0040BB",
"I+	c #003BAC",
"J+	c #0457F4",
"K+	c #3578EE",
"L+	c #3679EF",
"M+	c #3579EF",
"N+	c #578FF3",
"O+	c #1B57C5",
"P+	c #0036A3",
"Q+	c #0046C8",
"R+	c #0053EF",
"S+	c #D1D1D3",
"T+	c #0056F1",
"U+	c #06225F",
"V+	c #3E75D5",
"W+	c #3270DD",
"X+	c #3975DC",
"Y+	c #286CE4",
"Z+	c #003DB2",
"`+	c #1A5ADE",
" @	c #699BF4",
".@	c #1C58C4",
"+@	c #0036A4",
"@@	c #0049DA",
"#@	c #0048CE",
"$@	c #0052F1",
"%@	c #D6D5D7",
"&@	c #0054FA",
"*@	c #0156FC",
"=@	c #0156FB",
"-@	c #0255FA",
";@	c #013397",
">@	c #003EB7",
",@	c #225FDE",
"'@	c #699BF5",
")@	c #1F59C5",
"!@	c #004AD4",
"~@	c #0052F2",
"{@	c #DFDFE0",
"]@	c #0046D0",
"^@	c #0040BD",
"/@	c #0D57ED",
"(@	c #779ADD",
"_@	c #7FA1E4",
":@	c #80A1E4",
"<@	c #7FA0E2",
"[@	c #507FD5",
"}@	c #2963C8",
"|@	c #2863C7",
"1@	c #2862C8",
"2@	c #2D60BA",
"3@	c #0056FF",
"4@	c #0048D9",
"5@	c #004AD6",
"6@	c #7B7982",
"7@	c #EBEAEB",
"8@	c #B6B6BB",
"9@	c #0041C2",
"0@	c #1353C4",
"a@	c #0048D8",
"b@	c #0049D1",
"c@	c #95939C",
"d@	c #C8C8CC",
"e@	c #0055F4",
"f@	c #0844BB",
"g@	c #1453C5",
"h@	c #063BAA",
"i@	c #0056FA",
"j@	c #0145C6",
"k@	c #0055FA",
"l@	c #AEAEB3",
"m@	c #075CF7",
"n@	c #095FFB",
"o@	c #075FFC",
"p@	c #085FFC",
"q@	c #0C61FB",
"r@	c #1B6AF5",
"s@	c #8CA6D9",
"t@	c #2D75F4",
"u@	c #095FFC",
"v@	c #085EFC",
"w@	c #075EFC",
"x@	c #085EFD",
"y@	c #075EFD",
"z@	c #095EFC",
"A@	c #2967D3",
"B@	c #5787E2",
"C@	c #2C72ED",
"D@	c #055CFD",
"E@	c #1B64EF",
"F@	c #4876CB",
"G@	c #065DFC",
"H@	c #0158FD",
"I@	c #0051EF",
"J@	c #CBCACD",
"K@	c #BCBBC2",
"L@	c #0B51E2",
"M@	c #7F818E",
"N@	c #DCDFE4",
"O@	c #DADEE4",
"P@	c #DBDEE4",
"Q@	c #E0E1E5",
"R@	c #E9E8EA",
"S@	c #DCDEE4",
"T@	c #DBDEE5",
"U@	c #DCDFE5",
"V@	c #E3E4E8",
"W@	c #DDDFE4",
"X@	c #E5E6EA",
"Y@	c #E8E8EA",
"Z@	c #D3DAE3",
"`@	c #D3DAE4",
" #	c #DCDFE6",
".#	c #ECECED",
"+#	c #9A9DA8",
"@#	c #2157BE",
"##	c #95959D",
"$#	c #E9E9EA",
"%#	c #D4D4D7",
"&#	c #0054EA",
"*#	c #0055FF",
"=#	c #566FAE",
"-#	c #CFCED2",
";#	c #E2E1E3",
">#	c #79829C",
",#	c #0658F8",
"'#	c #0053F6",
")#	c #BCBBBF",
"!#	c #BFBDC4",
"~#	c #0D59F4",
"{#	c #8C94AE",
"]#	c #ECEBEC",
"^#	c #A7A8B1",
"/#	c #2766E2",
"(#	c #D9D8DC",
"_#	c #2263EB",
":#	c #A8AAB9",
"<#	c #BDBDC3",
"[#	c #4879D7",
"}#	c #0052F0",
"|#	c #C1C1C6",
"1#	c #CBCACF",
"2#	c #0054ED",
"3#	c #3A70E3",
"4#	c #BABAC2",
"5#	c #C8C8CD",
"6#	c #6588D0",
"7#	c #0156FE",
"8#	c #0055FB",
"9#	c #B2B0B7",
"0#	c #E9E9E9",
"a#	c #F1EFF1",
"b#	c #E5E5E7",
"c#	c #0056F5",
"d#	c #4778E1",
"e#	c #BCBCC5",
"f#	c #C7C6CB",
"g#	c #6A8DD3",
"h#	c #0357FD",
"i#	c #0055FE",
"j#	c #D9D9DC",
"k#	c #DFDFE2",
"l#	c #0055F6",
"m#	c #0054FF",
"n#	c #3871E9",
"o#	c #ADB2C5",
"p#	c #DDDCDF",
"q#	c #E3E2E4",
"r#	c #BABCC6",
"s#	c #5281DF",
"t#	c #0256FE",
"u#	c #004CDC",
"v#	c #CECDD1",
"w#	c #DEDDE0",
"x#	c #0055F5",
"y#	c #145FF8",
"z#	c #7A96D5",
"A#	c #C5C5CD",
"B#	c #E0E0E3",
"C#	c #E7E6E8",
"D#	c #CDCCD2",
"E#	c #90A4CE",
"F#	c #2469F2",
"G#	c #004CD8",
"H#	c #EEEEEF",
"I#	c #0053EC",
"J#	c #2568F3",
"K#	c #7795D9",
"L#	c #BABECD",
"M#	c #D4D4D8",
"N#	c #E3E2E5",
"O#	c #DCDBDF",
"P#	c #C9C8CF",
"Q#	c #93A6D1",
"R#	c #3D77EB",
"S#	c #0054F9",
"T#	c #D1CFD4",
"U#	c #EBEBEB",
"V#	c #0050D7",
"W#	c #0D5BFB",
"X#	c #4178EC",
"Y#	c #7696DC",
"Z#	c #A2AFD1",
"`#	c #C0C2CE",
" $	c #CAC9CF",
".$	c #CBCAD0",
"+$	c #C5C6CF",
"@$	c #B2B9CE",
"#$	c #8EA4D5",
"$$	c #5E89E3",
"%$	c #2268F4",
"&$	c #0154FF",
"*$	c #0051E9",
"=$	c #D8D7DB",
"-$	c #EBEBED",
";$	c #DEDDE3",
">$	c #0153E2",
",$	c #0056FC",
"'$	c #0457FE",
")$	c #0E5CFB",
"!$	c #115EFA",
"~$	c #0B5BFC",
"{$	c #0355FE",
"]$	c #0053EE",
"^$	c #D2D0D5",
"/$	c #E4E3E6",
"($	c #EEEBEE",
"_$	c #F0EDF0",
":$	c #EFECEF",
"<$	c #E7E3E9",
"[$	c #DDDBE1",
"}$	c #004ED5",
"|$	c #0153EA",
"1$	c #0055FC",
"2$	c #0053FF",
"3$	c #0054FE",
"4$	c #0052E1",
"5$	c #DDDBE0",
"6$	c #EDEAED",
"7$	c #EFEDEF",
"8$	c #EAE8EA",
"9$	c #EFEAEE",
"0$	c #EFE9ED",
"a$	c #EEE8EC",
"b$	c #E7E4E8",
"c$	c #DEDCE3",
"d$	c #024FD8",
"e$	c #0150DD",
"f$	c #0150E1",
"g$	c #0050E0",
"h$	c #0250DD",
"i$	c #024FD6",
"j$	c #D5D3D9",
"k$	c #DFDCE0",
"l$	c #EBE6EA",
"m$	c #EFEAED",
"n$	c #EBE6E9",
"o$	c #EBE5E9",
"p$	c #EAE5E9",
"q$	c #EAE4E8",
"r$	c #E7E2E7",
"s$	c #E2DFE4",
"t$	c #DCDBE1",
"u$	c #D7D7DB",
"v$	c #DBD8DE",
"w$	c #DCD9DF",
"x$	c #E3DFE4",
"y$	c #E9E4E8",
"z$	c #ECE7EB",
"A$	c #E5E0E4",
"B$	c #E6E0E5",
"C$	c #E5DFE3",
"D$	c #E4DEE3",
"E$	c #E3DEE2",
"F$	c #E2DDE2",
"G$	c #E0DCE1",
"H$	c #DFDBE0",
"I$	c #E0DCE0",
"J$	c #E2DDE1",
"K$	c #E4DEE2",
"L$	c #E5DEE3",
"M$	c #E7E1E5",
"N$	c #E6E0E6",
"O$	c #DED9DD",
"P$	c #DED8DC",
"Q$	c #DCD6DB",
"R$	c #DCD6DA",
"S$	c #DDD7DB",
"T$	c #DFD8DE",
"                                                                                                ",
"                                    . . . . . . . . . . + .                                     ",
"                              @ @ . . . # $ % & * = - + . . . @ @                               ",
"                          @ . . ; > , ' )             ! ~ { ] ; . . +                           ",
"                      . . . ^ / (           _ _ : <           [ } | . . .                       ",
"                    . . # 1 2       _ : < < < : < < < < < 3 <       4 5 . +                     ",
"                  . . 6 7     8 < < < < < : 9 0 a 9 : < < : < < <     b c . . +                 ",
"                . . d       < < < < e f g h i j k l m n o p : < < < q     r s . .               ",
"              . + t     u < < < v w x y z A B + + C D E F G H I : < < J     ~ K . .             ",
"            . . L     M < < N O P Q R . . . . . . . . . . C Q 2 S T < < J     U V .             ",
"          . . W     M < < X Y Z # . . . . . . . . . . . . . . + `  ...+.< @.    #.. .           ",
"        @ . $.%.  M &.< *.=.-.. . . . . . . . . . . . . . . . . . ;.>.,.'.< J     ).. .         ",
"        . # !.  ~.< < {.].^.. . . . . . . . . . . . . . . . . . . . /.(._.:.< <.  [.^ .         ",
"      . . }.    &.< |.1.| . . . . . . . . . . . . . . . . . . . . . . # 2.3.< < 4.  r . .       ",
"      . 5.6.  7.&.8.9.] . . . . . . . . . . . . . . . . . . . . . . . . 0.a.b.&.&.  c.^..       ",
"    . . {   d.&.&.e.4 . . . . . . . . . . . . . . . . . . . . . . . . . . f.g.h.&.i.  j.. @     ",
"    . ; k.  M &.l.m.^ . . . . . . . . . . . . . . . . . . . . . . . . . . . n.o.&.J   p.# .     ",
"    . q.    &.r.s.t.u.v.w.x.y.z.A.B.C.D.E.. . . F.G.H.I.J.K.L.M.M.N.O.G.P.P.Q.R.&.&.S.  T..     ",
"  @ . U.  V.r.&.&.&.&.&.&.&.r.W.:.&.&.X.R . . . Y.r.r.&.Z.&.&.&.&.&.&.&.&.&.&.&.&.r.`.   +. @   ",
"  @ . .+  J r.r.r.&.r.r.r.r.r.++J r.r.@+R . . . #+r.r.r.$+r.r.r.r.r.r.&.r.&.&.&.&.r.r.  %+. .   ",
"  . ; &+  r.r.r.r.r.r.*+r.r.r.=+-+r.r.;+>+,+z.'+)+!+~+{+]+r.r.r.-+r.r.r.-+-+r.r.r.r.r.  ^+# .   ",
"  . /+    r.r.(+r.r.r._+:+<+[+}+-+r.r.r.|+1+2+1+3+4+5+6+7+r.r.r.8+9+r.r.0+a+r.r.r.r.r.b+  ^..   ",
"  . c+  d.r.r.d+r.r.r.e+f+g+h+i+j+r.r.r.r.r.r.k+l+r.r.r.m+r.r.r.n+o+r.r.p+q+r.r.r.r.r.r+  s+.   ",
"  . >   t+r.u+v+r.u+u+r.r.u+r.w+u+r.r.u+r.r.u+r.x+u+r.r.y+r.r.u+z+o+r.r.A+B+u+r.r.u+r.C+  D+.   ",
"  . E+  F+u+G+H+r.r.u+r.r.u+u+I+u+r.r.J+K+L+M+L+N+u+u+u+O+u+r.u+P+G+u+u+p+Q+u+u+u+u+r.R+  S+.   ",
"  . D   T+u+(+U+V+W+X+Y+u+u+u+Z+r.u+u+`+B s s V  @u+u+u+.@u+u+u++@o+r.u+@@#@u+u+r.u+u+$@  %@.   ",
"  . 5     u+u+&@*@=@-@;@u+u+u+>@u+u+u+,@# . . . '@u+u+u+)@u+u+u+P+`.u+u+@@!@u+u+u+u+u+~@  {@.   ",
"  . V n.  u+u+u+u+u+u+]@u+u+u+^@u+u+u+/@(@_@:@<@[@}@|@1@2@u+u+u+P+`.u+3@4@5@u+u+u+u+u+  6@7@.   ",
"  . . 8@  (+u+u+u+u+u+u+u+u+u+9@u+u+u+u+u+u+u+u+u+u+u+u+0@u+u+u+P+`.u+u+a@b@u+u+u+u+u+  c@. .   ",
"  @ . d@  e@3@3@3@3@3@3@3@3@3@f@(+3@3@3@3@3@3@3@3@3@3@u+g@3@u+3@h@i@3@3@4@j@3@u+3@3@k@  l@. +   ",
"    . $     3@3@=@m@n@o@p@q@r@s@t@u@v@v@w@x@x@y@x@z@z@v@A@p@p@w@B@C@D@D@E@F@G@H@3@3@I@  J@. @   ",
"    @ + K@  o+3@L@M@N@O@P@Q@5.. R@P@O@P@S@S@S@N@S@T@U@N@V@W@N@N@X@Y@Z@`@ #.#+#@#3@3@  ##$#.     ",
"    . . %#  &#*#3@=#-#. . . . . . . . . . . . . . . . . . . . . . . . . . ;#>#,#*#'#  )#. .     ",
"      . .#!#  i@*#~#{#;#. . . . . . . . . . . . . . . . . . . . . . . . ]#^#/#3@*#    | .       ",
"      . . (#    3@*#_#:#B . . . . . . . . . . . . . . . . . . . . . . + <#[#*#*#}#  |#. @       ",
"        . V 1#  2#*#*#3#4#K . . . . . . . . . . . . . . . . . . . . + 5#6#7#*#8#  9#0#.         ",
"        a#. b#    c#*#*#d#e#$#. . . . . . . . . . . . . . . . . . # f#g#h#*#i#    j#. .         ",
"          . . k#    l#m#*#n#o#p#. . . . . . . . . . . . . . . . q#r#s#t#*#i#u#  v#. .           ",
"            . . w#    x#m#m#y#z#A#B#+ . . . . . . . . . . . C#D#E#F#m#m#i#G#  D#H#.             ",
"              . E.k#    I#m#m#m#J#K#L#M#N## . . . . + Y@O#P#Q#R#t#m#m#S#    T#V . V             ",
"              U#. . b#    V#8#m#m#m#W#X#Y#Z#`# $.$+$@$#$$$%$&$m#m#*#*$    =$+ . V               ",
"                  + E.-$;$    >$,$m#m#m#m#m#'$)$!$~${$m#m#m#m#m#]$    ^$/$E.. K                 ",
"                    ($_$:$<$[$    }$|$1$2$2$2$2$2$2$2$m#3$x#4$      5$6$_$7$                    ",
"                      8$9$0$a$b$c$        d$e$f$g$h$i$        j$k$l$0$m$($                      ",
"                          n$o$p$q$r$s$t$              u$v$w$x$y$o$o$z$                          ",
"                              A$B$C$C$D$E$F$G$G$H$I$J$K$D$L$C$M$N$                              ",
"                                    O$P$P$Q$R$Q$R$Q$S$P$O$T$                                    ",
"                                                                                                "};
