/* XPM */
static char * stim32_xpm[] = {
"32 32 311 2",
"  	c None",
". 	c #F1F1F1",
"+ 	c #F0F0F0",
"@ 	c #EFEFEF",
"# 	c #E4E4E5",
"$ 	c #DCDCDE",
"% 	c #E0E0E1",
"& 	c #E8E8E9",
"* 	c #E5E5E6",
"= 	c #C5C5C8",
"- 	c #B4B3B9",
"; 	c #B7B5BA",
"> 	c #C8C8CB",
", 	c #E3E3E4",
"' 	c #E7E7E8",
") 	c #BEBCC1",
"! 	c #005BFF",
"~ 	c #005AFF",
"{ 	c #B9B8BD",
"] 	c #E0E0E2",
"^ 	c #D0D0D3",
"/ 	c #045CF8",
"( 	c #145EE0",
"_ 	c #2061D4",
": 	c #2062D4",
"< 	c #145FE1",
"[ 	c #035CFA",
"} 	c #C8C6CB",
"| 	c #C1C1C4",
"1 	c #005BFC",
"2 	c #015BFD",
"3 	c #2562D0",
"4 	c #617CAC",
"5 	c #A0A3AE",
"6 	c #C1C0C4",
"7 	c #CDCCCF",
"8 	c #CCCCCF",
"9 	c #C0BFC3",
"0 	c #9DA2AD",
"a 	c #5F7BAE",
"b 	c #2664D0",
"c 	c #025BFC",
"d 	c #005AFE",
"e 	c #B7B7BC",
"f 	c #EEEEEE",
"g 	c #005AFD",
"h 	c #175FE1",
"i 	c #7787A9",
"j 	c #CCCBCF",
"k 	c #818FA9",
"l 	c #2264D7",
"m 	c #B8B7BC",
"n 	c #D0D0D2",
"o 	c #2C64CE",
"p 	c #ADAEB8",
"q 	c #EDEDED",
"r 	c #BCBCC1",
"s 	c #426FBE",
"t 	c #015AFE",
"u 	c #0059FD",
"v 	c #C8C8CC",
"w 	c #E7E7E7",
"x 	c #0058F9",
"y 	c #2963D2",
"z 	c #BBBBC1",
"A 	c #CECED1",
"B 	c #4571BF",
"C 	c #0058FB",
"D 	c #E2E2E3",
"E 	c #B9B9BD",
"F 	c #0059FF",
"G 	c #115CE9",
"H 	c #A6A9B6",
"I 	c #C1C1C5",
"J 	c #2665D6",
"K 	c #B7B5BB",
"L 	c #0059FE",
"M 	c #677DAD",
"N 	c #EAEAEA",
"O 	c #8E97AD",
"P 	c #045AF7",
"Q 	c #0058FD",
"R 	c #0C56E5",
"S 	c #869ECE",
"T 	c #AFC8F4",
"U 	c #ADC8F4",
"V 	c #BDD1F3",
"W 	c #D4E0F2",
"X 	c #B3CBF4",
"Y 	c #B3CCF4",
"Z 	c #E2E7F0",
"` 	c #C9D9F2",
" .	c #BCD0F3",
"..	c #C2D4F3",
"+.	c #BCD0F1",
"@.	c #B8CEF3",
"#.	c #B9CFF3",
"$.	c #BAD0F3",
"%.	c #A2B7DD",
"&.	c #1E5CD0",
"*.	c #ABABAF",
"=.	c #0059F8",
"-.	c #0058FF",
";.	c #1558D7",
">.	c #AFC0E6",
",.	c #4987F8",
"'.	c #1060F5",
").	c #0352E5",
"!.	c #0056F9",
"~.	c #AAAAAF",
"{.	c #0057FA",
"].	c #0058FE",
"^.	c #0046CD",
"/.	c #A5B9E6",
"(.	c #E4E9F1",
"_.	c #E6EAF1",
":.	c #588BE2",
"<.	c #175EDF",
"[.	c #2867D8",
"}.	c #0056FA",
"|.	c #0056FC",
"1.	c #0545BF",
"2.	c #2D71E6",
"3.	c #2E70E5",
"4.	c #3168CE",
"5.	c #025AFF",
"6.	c #035AFF",
"7.	c #035BFF",
"8.	c #3A7EF8",
"9.	c #065CFE",
"0.	c #1261F2",
"a.	c #0251E5",
"b.	c #0044C7",
"c.	c #0043C1",
"d.	c #E6E6E6",
"e.	c #DBDADC",
"f.	c #004FE6",
"g.	c #0848C3",
"h.	c #367AF8",
"i.	c #0F5EF2",
"j.	c #0150E4",
"k.	c #0042C3",
"l.	c #0041BE",
"m.	c #DDDDDE",
"n.	c #DEDEE0",
"o.	c #0057FF",
"p.	c #0045CB",
"q.	c #0257F0",
"r.	c #0159FF",
"s.	c #0045C9",
"t.	c #5286E6",
"u.	c #739FEE",
"v.	c #3E7FF7",
"w.	c #1260F3",
"x.	c #004FE3",
"y.	c #0042C2",
"z.	c #0057FD",
"A.	c #0043C4",
"B.	c #DCDCDD",
"C.	c #0050ED",
"D.	c #1C5BD7",
"E.	c #2366E6",
"F.	c #1F55BC",
"G.	c #0047CE",
"H.	c #B3BFDE",
"I.	c #4684F8",
"J.	c #1460F2",
"K.	c #014FE4",
"L.	c #0041C2",
"M.	c #0057FE",
"N.	c #0057F8",
"O.	c #004FEA",
"P.	c #0048D4",
"Q.	c #3A74E8",
"R.	c #5588ED",
"S.	c #5588EC",
"T.	c #2D6CE0",
"U.	c #1B5FDA",
"V.	c #2865D3",
"W.	c #0150E6",
"X.	c #0044CA",
"Y.	c #0055FA",
"Z.	c #C2C2C7",
"`.	c #0054F3",
" +	c #0056FF",
".+	c #044AD3",
"++	c #0C5AF0",
"@+	c #0150E7",
"#+	c #0343C5",
"$+	c #0142C2",
"%+	c #0054F7",
"&+	c #A8A8AE",
"*+	c #D6D5D8",
"=+	c #0454F3",
"-+	c #3872DE",
";+	c #4884F0",
">+	c #4984F0",
",+	c #598FEF",
"'+	c #9EB7E5",
")+	c #4C86F0",
"!+	c #4783F0",
"~+	c #4883F1",
"{+	c #4884F1",
"]+	c #4984F1",
"^+	c #558AEB",
"/+	c #4E84E5",
"(+	c #6F99E7",
"_+	c #5C8FEC",
":+	c #407EF1",
"<+	c #6C92DA",
"[+	c #447DE5",
"}+	c #0856EC",
"|+	c #C5C3C8",
"1+	c #EBEBEC",
"2+	c #0055F6",
"3+	c #0255FC",
"4+	c #8691B0",
"5+	c #EEEEEF",
"6+	c #A3A7B5",
"7+	c #0A59F1",
"8+	c #0055FC",
"9+	c #E1E0E2",
"0+	c #D6D6D8",
"a+	c #0055FE",
"b+	c #2061E8",
"c+	c #BEC0CA",
"d+	c #D0D0D4",
"e+	c #386EDA",
"f+	c #0052ED",
"g+	c #0053ED",
"h+	c #0055FF",
"i+	c #3D72E1",
"j+	c #D3D3D8",
"k+	c #DEDDDF",
"l+	c #5D84D5",
"m+	c #0053F5",
"n+	c #E3E2E4",
"o+	c #0055F4",
"p+	c #4B7BE1",
"q+	c #D0D1D7",
"r+	c #D8D8DB",
"s+	c #638AD9",
"t+	c #0156FE",
"u+	c #0054FB",
"v+	c #D7D7D9",
"w+	c #E1E1E3",
"x+	c #0053F4",
"y+	c #2E6CEE",
"z+	c #A8B4D4",
"A+	c #E6E6E7",
"B+	c #B7BFD4",
"C+	c #3D76E9",
"D+	c #0054FF",
"E+	c #0054FA",
"F+	c #D3D2D6",
"G+	c #E3E3E6",
"H+	c #0052EA",
"I+	c #0456FE",
"J+	c #4178EA",
"K+	c #92A8DA",
"L+	c #CFD1DA",
"M+	c #E6E6E8",
"N+	c #E2E2E4",
"O+	c #D8D8DC",
"P+	c #A9B7D8",
"Q+	c #5483E4",
"R+	c #095AFC",
"S+	c #D7D7DB",
"T+	c #E9E8EA",
"U+	c #0054F2",
"V+	c #0C5AFC",
"W+	c #316FF1",
"X+	c #477CEA",
"Y+	c #4A7EE9",
"Z+	c #3B75EE",
"`+	c #1862F8",
" @	c #0154FF",
".@	c #0054F8",
"+@	c #E2E1E4",
"@@	c #F0EFF0",
"#@	c #EFECEF",
"$@	c #EEEAEE",
"%@	c #E6E3E9",
"&@	c #0052E8",
"*@	c #0153F1",
"=@	c #0054FC",
"-@	c #0055FB",
";@	c #0052EB",
">@	c #DEDBE0",
",@	c #ECE8EC",
"'@	c #ECE6E9",
")@	c #ECE6EA",
"!@	c #EAE5E9",
"~@	c #E5E0E6",
"{@	c #DFDEE3",
"]@	c #DAD8DC",
"^@	c #E0DDE1",
"/@	c #E8E3E7",
"(@	c #EDE7EA",
"_@	c #EDE8EA",
":@	c #E4DFE4",
"<@	c #E4DEE3",
"[@	c #E3DDE1",
"}@	c #E2DCE1",
"|@	c #E1DBE0",
"1@	c #E0DBDF",
"2@	c #DFDADE",
"3@	c #E4DDE3",
"4@	c #E6DFE4",
"5@	c #DBD6D9",
"6@	c #DCD5DB",
"                              . +                               ",
"                    + @ + @ # $ % & + + + +                     ",
"                + . * = -             ; > , + @                 ",
"              . ' )     ! ! ! ! ! ! ! ~     { ] +               ",
"            . ^     ! ~ ~ / ( _ : < [ ! ~ ~     } @ @           ",
"          + |   1 ~ 2 3 4 5 6 7 8 9 0 a b c ~ d   e f +         ",
"        + 6   g ~ h i j f + + + + + + f 7 k l ~ d   m @         ",
"      + n   g ~ o p q + + + + + + + + + + @ r s t u   v +       ",
"    + w   x ~ y z + + + + + + + + + + + + + + A B ~ C   D +     ",
"    . E   F G H + + + + + + + + + + + + + + + + I J F   K +     ",
"  + *   C L M N + + + + + + + + + + + + + + + + @ O P Q   D @   ",
"  + |   F R S T U V W X Y Z + + `  ...+.@.@.#.#.$.%.&.F   I @   ",
"  + *.=.F F F -.F -.;.F F >.+ + ,.-.'.).F F F F F F F F !.~.+   ",
"  @   {.-.-.-.].-.-.^.-.-./.(._.:.<.[.).-.-.-.-.].-.-.-.}.  @   ",
". D   Q |.-.-.1.2.3.4.-.-.5.6.7.8.9.0.a.-.b.Q -.c.-.-.-.Q   d.  ",
". e.  -.f.-.-.-.-.-.g.-.-.-.-.-.h.-.i.j.-.k.Q -.l.-.-.-.-.  m.+ ",
"@ n.  o.p.q.F r.o.o.s.o.-.t.u.u.v.o.w.x.-.y.z.o.A.o.-.o.-.  B.+ ",
"  '   z.C.D.E.F.o.o.G.o.o.H.+ + I.o.J.K.o.L.z.o.s.o.o.o.M.  ,   ",
"  @   N.o.o.o.O.o.o.P.o.o.Q.R.S.T.U.V.W.o.L.|.o.X.o.o.o.Y.  f   ",
"  + Z.`. + + + + + +.+o. + + +o. + +++@+o.#+|. +$+ +o. +%+&++   ",
"  + *+   +=+-+;+>+,+'+)+!+~+~+{+~+]+^+/+>+(+_+:+<+[+}+ +  |++   ",
"  . 1+  2+3+4+5++ + + + + + + + + + + + + + + + + 6+7+8+  9+@   ",
"    + 0+  a+b+c++ + + + + + + + + + + + + + + + d+e+ +f+Z.+     ",
"    @ 1+  g+h+i+j++ + + + + + + + + + + + + + k+l+h+m+  * +     ",
"      + n+  o+h+p+q+@ + + + + + + + + + + + r+s+t+u+  v++       ",
"        + w+  x+h+y+z+w++ + + + + + + + A+B+C+D+E+  F+@         ",
"        q + G+  H+D+I+J+K+L+] M+' N+O+P+Q+R+D+x+  S+@ @         ",
"          q @ T+    U+D+D+V+W+X+Y+Z+`+ @D+.@    +@@@q           ",
"              #@$@%@    &@*@=@D+D+-@`.;@    >@,@#@              ",
"                '@)@!@~@{@            ]@^@/@(@_@                ",
"                    :@<@[@}@|@1@2@|@}@[@3@4@                    ",
"                              5@6@                              "};
