/* XPM */
static char * stim24_xpm[] = {
"24 24 273 2",
"  	c None",
". 	c #1994EC",
"+ 	c #169CEF",
"@ 	c #14A1EF",
"# 	c #11A6F2",
"$ 	c #0FACF4",
"% 	c #0DB1F5",
"& 	c #0BB6F7",
"* 	c #09BBF8",
"= 	c #07C0F9",
"- 	c #06C3FB",
"; 	c #04C7FC",
"> 	c #03CAFD",
", 	c #02CDFE",
"' 	c #00CFFE",
") 	c #00D1FF",
"! 	c #1F86E9",
"~ 	c #1D8CEA",
"{ 	c #1A92EC",
"] 	c #1898EE",
"^ 	c #169EEF",
"/ 	c #13A3F1",
"( 	c #11A9F3",
"_ 	c #0FAEF4",
": 	c #0DB3F5",
"< 	c #0BB8F7",
"[ 	c #09BDF9",
"} 	c #07C0FA",
"| 	c #05C5FB",
"1 	c #04C9FC",
"2 	c #03CCFD",
"3 	c #01CFFE",
"4 	c #00D2FF",
"5 	c #2083E8",
"6 	c #1F87E9",
"7 	c #1C8EEA",
"8 	c #1A93EC",
"9 	c #1899EE",
"0 	c #159FF0",
"a 	c #13A5F2",
"b 	c #11AAF3",
"c 	c #0FAFF4",
"d 	c #0CB4F6",
"e 	c #0AB9F8",
"f 	c #09BEF9",
"g 	c #07C2FB",
"h 	c #05C6FC",
"i 	c #03C9FC",
"j 	c #03CDFD",
"k 	c #227EE6",
"l 	c #2183E7",
"m 	c #1F89E9",
"n 	c #1C8FEB",
"o 	c #15A0F0",
"p 	c #12A5F1",
"q 	c #10AAF3",
"r 	c #0EB0F5",
"s 	c #0CB5F6",
"t 	c #08BEF9",
"u 	c #07C2FA",
"v 	c #00D0FF",
"w 	c #247AE5",
"x 	c #2084E7",
"y 	c #1D8AEA",
"z 	c #1B90EB",
"A 	c #1996ED",
"B 	c #169BEF",
"C 	c #14A0F0",
"D 	c #12A7F3",
"E 	c #10ADF4",
"F 	c #0CB6F6",
"G 	c #0ABBF8",
"H 	c #08BFF9",
"I 	c #06C3FA",
"J 	c #04C8FC",
"K 	c #03CBFD",
"L 	c #02CEFE",
"M 	c #2676E3",
"N 	c #2280E6",
"O 	c #1F86E8",
"P 	c #1B91EC",
"Q 	c #1897EE",
"R 	c #169CEE",
"S 	c #139FEF",
"T 	c #12ABF5",
"U 	c #10B5F8",
"V 	c #0EBAFA",
"W 	c #0CBFFC",
"X 	c #0AC2FC",
"Y 	c #08C5FD",
"Z 	c #06C8FE",
"` 	c #04CAFD",
" .	c #02CFFE",
"..	c #2871E2",
"+.	c #247CE5",
"@.	c #2181E7",
"#.	c #1F87E8",
"$.	c #1796EC",
"%.	c #0E7EDA",
"&.	c #096FCF",
"*.	c #0A80D9",
"=.	c #0B91E2",
"-.	c #0A9CE8",
";.	c #09A5EC",
">.	c #08AEF0",
",.	c #07B9F5",
"'.	c #05C3FA",
").	c #2A6DE1",
"!.	c #2677E3",
"~.	c #237EE6",
"{.	c #2182E7",
"].	c #1F88E9",
"^.	c #1C8EEB",
"/.	c #1A95ED",
"(.	c #0B6CCE",
"_.	c #003AAD",
":.	c #002CA5",
"<.	c #003DAF",
"[.	c #024CB8",
"}.	c #035AC0",
"|.	c #046ECB",
"1.	c #0483D7",
"2.	c #049DE6",
"3.	c #03BAF4",
"4.	c #2A6CE0",
"5.	c #296EE1",
"6.	c #2772E2",
"7.	c #2578E4",
"8.	c #1E8AEA",
"9.	c #1B8FEA",
"0.	c #1A97EE",
"a.	c #18A1F3",
"b.	c #1297E9",
"c.	c #0C86DE",
"d.	c #286FE2",
"e.	c #2774E3",
"f.	c #2579E4",
"g.	c #227FE6",
"h.	c #2085E8",
"i.	c #1E8AE9",
"j.	c #1997ED",
"k.	c #17A1F2",
"l.	c #15A7F5",
"m.	c #13AFF8",
"n.	c #2280E7",
"o.	c #2086E8",
"p.	c #1898ED",
"q.	c #169DEF",
"r.	c #11A8F2",
"s.	c #0FACF3",
"t.	c #2577E4",
"u.	c #237CE6",
"v.	c #159FEF",
"w.	c #13A4F1",
"x.	c #10A9F3",
"y.	c #0EAEF4",
"z.	c #2886ED",
"A.	c #2387EB",
"B.	c #208CEB",
"C.	c #1C8DEA",
"D.	c #179AEE",
"E.	c #10ABF3",
"F.	c #0EB0F4",
"G.	c #0CB3F5",
"H.	c #214DCA",
"I.	c #1248BF",
"J.	c #0341B3",
"K.	c #0038A9",
"L.	c #0036A6",
"M.	c #0037A8",
"N.	c #0033A6",
"O.	c #002EA2",
"P.	c #084EBD",
"Q.	c #1974DB",
"R.	c #1F8DED",
"S.	c #1C90EB",
"T.	c #1995ED",
"U.	c #179BEE",
"V.	c #15A1F0",
"W.	c #12A6F2",
"X.	c #10ACF3",
"Y.	c #0EB1F5",
"Z.	c #3152D6",
"`.	c #2D54D4",
" +	c #2756D2",
".+	c #2256D0",
"++	c #1C56CC",
"@+	c #1754C8",
"#+	c #1151C3",
"$+	c #0B4DBE",
"%+	c #0544B6",
"&+	c #0445B6",
"*+	c #1062CC",
"=+	c #1C88E8",
"-+	c #1B93ED",
";+	c #13A3F0",
">+	c #12A8F2",
",+	c #0FADF4",
"'+	c #0DB2F5",
")+	c #3652D9",
"!+	c #3655DA",
"~+	c #355ADD",
"{+	c #345FDF",
"]+	c #3264E0",
"^+	c #2F68E1",
"/+	c #2C6DE2",
"(+	c #2972E3",
"_+	c #2777E4",
":+	c #2278E3",
"<+	c #1D77DF",
"[+	c #1E82E5",
"}+	c #1D8DEA",
"|+	c #1997EE",
"1+	c #13A2F1",
"2+	c #3551D8",
"3+	c #3455D9",
"4+	c #3259DB",
"5+	c #305DDC",
"6+	c #2E63DE",
"7+	c #2D68DF",
"8+	c #2B6DE1",
"9+	c #2973E3",
"0+	c #2679E5",
"a+	c #247EE6",
"b+	c #1E88E9",
"c+	c #1799EE",
"d+	c #364FD8",
"e+	c #3456D9",
"f+	c #325ADB",
"g+	c #305FDC",
"h+	c #2E64DD",
"i+	c #2C69DF",
"j+	c #2A6EE1",
"k+	c #2773E3",
"l+	c #1E89E9",
"m+	c #1B8FEB",
"n+	c #1995EC",
"o+	c #3650D8",
"p+	c #3552D9",
"q+	c #3356D9",
"r+	c #315BDB",
"s+	c #2F60DC",
"t+	c #2E64DE",
"u+	c #2C69E0",
"v+	c #296FE1",
"w+	c #2774E2",
"x+	c #2084E8",
"y+	c #3453D9",
"z+	c #3358DA",
"A+	c #315CDC",
"B+	c #2F61DD",
"C+	c #2D66DE",
"D+	c #2B6AE0",
"E+	c #286FE1",
"F+	c #2674E3",
"G+	c #1A91EB",
"H+	c #3454D9",
"I+	c #315DDC",
"J+	c #2E62DD",
"K+	c #2C67DE",
"L+	c #2B6CE0",
"M+	c #1E87E9",
"N+	c #3259DA",
"O+	c #305EDC",
"P+	c #2E63DD",
"Q+	c #2D67DF",
"R+	c #2B6CE1",
"S+	c #2872E2",
"T+	c #2578E3",
"U+	c #3454D8",
"V+	c #3356DA",
"W+	c #305FDD",
"X+	c #2F5FDD",
"          . + @ # $ % & * = - ; > , ' )         ",
"      ! ~ { ] ^ / ( _ : < [ } | 1 2 3 ) 4 )     ",
"      5 6 7 8 9 0 a b c d e f g h i j 3 4 4     ",
"      k l m n . 9 o p q r s e t u h > , v 4     ",
"      w k x y z A B C D E % F G H I J K L v     ",
"      M w N O ~ P Q R S T U V W X Y Z ` 2  .    ",
"      ..M +.@.#.~ 8 $.%.&.*.=.-.;.>.,.'.` L     ",
"      )...!.~.{.].^./.$.(._.:.<.[.}.|.1.2.3.    ",
"      4.5.6.7.~.x 8.9.0.a.b.c.                  ",
"          d.e.f.g.h.i.z j.k.l.m.                ",
"              M w n.o.~ { p.q./ r.s.            ",
"                t.u.{.].^.8 9 v.w.x.y.          ",
"                    z.A.B.C.8 D.0 a E.F.G.      ",
"      H.I.J.K.L.M.N.O.P.Q.R.S.T.U.V.W.X.Y.s     ",
"      Z.`. +.+++@+#+$+%+&+*+=+-+j.+ ;+>+,+'+    ",
"      )+!+~+{+]+^+/+(+_+:+<+[+}+{ |+q.1+( ,+    ",
"        2+3+4+5+6+7+8+9+0+a+{.b+7 8 c+0 w.x.    ",
"        d+2+e+f+g+h+i+j+k+f.~.x l+m+n+U.o       ",
"          o+p+q+r+s+t+u+v+w+f.g.x+8.z T.        ",
"            o+y+z+A+B+C+D+E+F+w N o.~ G+        ",
"              2+H+z+I+J+K+L+..M +.@.M+          ",
"                2+3+N+O+P+Q+R+S+T+              ",
"                  U+V+f+W+t+i+E+                ",
"                      z+r+X+                    "};
