/* XPM */
static char * stim48_xpm[] = {
"48 48 501 2",
"  	c None",
". 	c #11A5F1",
"+ 	c #10A9F2",
"@ 	c #0FACF3",
"# 	c #0EAFF4",
"$ 	c #0EB1F5",
"% 	c #0DB2F5",
"& 	c #0BB5F7",
"* 	c #0AB8F7",
"= 	c #09BAF8",
"- 	c #09BDF8",
"; 	c #08C0FA",
"> 	c #06C3FB",
", 	c #06C3FA",
"' 	c #06C4FB",
") 	c #03C8FC",
"! 	c #03C9FC",
"~ 	c #03C8FD",
"{ 	c #01CBFD",
"] 	c #1992EC",
"^ 	c #1895ED",
"/ 	c #1799EE",
"( 	c #169CEF",
"_ 	c #14A0F0",
": 	c #13A2F0",
"< 	c #12A5F1",
"[ 	c #11A7F2",
"} 	c #10AAF3",
"| 	c #0FADF4",
"1 	c #0FB0F4",
"2 	c #0CB5F6",
"3 	c #0BB6F7",
"4 	c #0ABAF8",
"5 	c #09BBF8",
"6 	c #08BEF9",
"7 	c #07C0FA",
"8 	c #06C2FA",
"9 	c #05C5FC",
"0 	c #04C8FC",
"a 	c #03CAFC",
"b 	c #02CBFD",
"c 	c #02CCFD",
"d 	c #01CEFE",
"e 	c #00D0FE",
"f 	c #00D1FF",
"g 	c #00D0FF",
"h 	c #00CFFF",
"i 	c #1D8AE9",
"j 	c #1D8BEA",
"k 	c #1B8FEA",
"l 	c #1A91EC",
"m 	c #1994EC",
"n 	c #1898ED",
"o 	c #179BEE",
"p 	c #169DEF",
"q 	c #15A0F0",
"r 	c #14A2F1",
"s 	c #12A5F2",
"t 	c #11A8F2",
"u 	c #0EB0F4",
"v 	c #0DB3F6",
"w 	c #0BB7F7",
"x 	c #0AB9F8",
"y 	c #09BCF8",
"z 	c #08BFF9",
"A 	c #04C6FC",
"B 	c #02CDFE",
"C 	c #01CFFE",
"D 	c #00D2FF",
"E 	c #1F83E7",
"F 	c #1F87E8",
"G 	c #1E8AE9",
"H 	c #1D8DEA",
"I 	c #1B90EB",
"J 	c #1A92EC",
"K 	c #1995ED",
"L 	c #1897ED",
"M 	c #169AEE",
"N 	c #169EEF",
"O 	c #13A2F1",
"P 	c #12A6F2",
"Q 	c #11A9F2",
"R 	c #10ABF3",
"S 	c #0FAEF4",
"T 	c #06C5FB",
"U 	c #04C7FC",
"V 	c #03CAFD",
"W 	c #2182E7",
"X 	c #2084E8",
"Y 	c #1C8DEA",
"Z 	c #1A93EC",
"` 	c #1898EE",
" .	c #159EEF",
"..	c #14A1F0",
"+.	c #13A4F1",
"@.	c #11A9F3",
"#.	c #0FACF4",
"$.	c #0FAFF4",
"%.	c #0CB3F6",
"&.	c #0BB6F6",
"*.	c #0BB8F7",
"=.	c #09BDF9",
"-.	c #07C1FA",
";.	c #03CBFD",
">.	c #02CDFD",
",.	c #00D1FE",
"'.	c #2281E7",
").	c #2085E8",
"!.	c #1F88E9",
"~.	c #1C8EEA",
"{.	c #1B91EB",
"].	c #1A94EC",
"^.	c #1896ED",
"/.	c #159FF0",
"(.	c #0EB2F5",
"_.	c #0CB4F6",
":.	c #0BB9F7",
"<.	c #08C0F9",
"[.	c #06C1FA",
"}.	c #05C6FC",
"|.	c #227EE6",
"1.	c #227FE6",
"2.	c #2083E7",
"3.	c #2086E8",
"4.	c #1E8BEA",
"5.	c #1C8EEB",
"6.	c #1B92EB",
"7.	c #179AEE",
"8.	c #179CEF",
"9.	c #14A2F0",
"0.	c #12A4F1",
"a.	c #07C0F9",
"b.	c #237CE5",
"c.	c #2281E6",
"d.	c #2084E7",
"e.	c #1E89E9",
"f.	c #1B8FEB",
"g.	c #1B91EC",
"h.	c #14A3F1",
"i.	c #0EB0F5",
"j.	c #0DB3F5",
"k.	c #0BB5F6",
"l.	c #03CCFD",
"m.	c #01D0FE",
"n.	c #247AE5",
"o.	c #237BE5",
"p.	c #2282E7",
"q.	c #179BEF",
"r.	c #159DEF",
"s.	c #13A3F1",
"t.	c #0ABBF8",
"u.	c #2577E4",
"v.	c #2579E4",
"w.	c #2181E7",
"x.	c #1E8BE9",
"y.	c #1899EE",
"z.	c #179CEE",
"A.	c #11A6F2",
"B.	c #0DB1F5",
"C.	c #0CB5F7",
"D.	c #05C5FB",
"E.	c #2676E3",
"F.	c #257AE4",
"G.	c #237DE5",
"H.	c #1D8BE9",
"I.	c #1C8FEB",
"J.	c #13A5F1",
"K.	c #07BFF9",
"L.	c #2774E3",
"M.	c #2675E3",
"N.	c #2578E4",
"O.	c #247BE5",
"P.	c #2280E6",
"Q.	c #2183E7",
"R.	c #1F86E8",
"S.	c #1D8CEA",
"T.	c #1B8EEB",
"U.	c #1B92EC",
"V.	c #1994ED",
"W.	c #15A4F2",
"X.	c #15A9F5",
"Y.	c #14AAF5",
"Z.	c #12ACF5",
"`.	c #10ADF5",
" +	c #0FAFF5",
".+	c #0FB1F5",
"++	c #09BCF9",
"@+	c #2871E2",
"#+	c #2773E2",
"$+	c #247CE5",
"%+	c #227EE5",
"&+	c #1995EC",
"*+	c #1596EB",
"=+	c #0F84DE",
"-+	c #0F88E0",
";+	c #1196E9",
">+	c #109DEC",
",+	c #11A5F0",
"'+	c #0FAEF5",
")+	c #10B5F8",
"!+	c #10B8FA",
"~+	c #0EBBFB",
"{+	c #0CBBFA",
"]+	c #0BBBF9",
"^+	c #0ABBF9",
"/+	c #08BEF8",
"(+	c #05C4FB",
"_+	c #04C6FB",
":+	c #01CDFE",
"<+	c #296FE1",
"[+	c #2774E2",
"}+	c #1997EE",
"|+	c #1696EC",
"1+	c #0E79D7",
"2+	c #0450BB",
"3+	c #003FB0",
"4+	c #034EBA",
"5+	c #055AC1",
"6+	c #0665C8",
"7+	c #0770CF",
"8+	c #087BD5",
"9+	c #0989DD",
"0+	c #0A95E4",
"a+	c #0AA2EB",
"b+	c #0BB1F3",
"c+	c #0ABCF9",
"d+	c #09C3FC",
"e+	c #08C8FF",
"f+	c #07C9FE",
"g+	c #07CAFE",
"h+	c #05CAFE",
"i+	c #04CBFE",
"j+	c #03CCFE",
"k+	c #2A6DE0",
"l+	c #2A6EE1",
"m+	c #247DE5",
"n+	c #2085E7",
"o+	c #1E88E9",
"p+	c #1996ED",
"q+	c #19A1F3",
"r+	c #1598EC",
"s+	c #0968CB",
"t+	c #0039AC",
"u+	c #0031A7",
"v+	c #0033A9",
"w+	c #0035AA",
"x+	c #0037AB",
"y+	c #003CAF",
"z+	c #0142B2",
"A+	c #0148B5",
"B+	c #024FB9",
"C+	c #0255BD",
"D+	c #035EC3",
"E+	c #046DCB",
"F+	c #047CD3",
"G+	c #048CDC",
"H+	c #069FE7",
"I+	c #04AEEF",
"J+	c #04BAF5",
"K+	c #04C4FA",
"L+	c #2A6BE0",
"M+	c #2A6CE0",
"N+	c #2772E2",
"O+	c #2775E3",
"P+	c #2677E4",
"Q+	c #237EE5",
"R+	c #1C8FEA",
"S+	c #199EF1",
"T+	c #17A3F3",
"U+	c #118CE3",
"V+	c #0557C0",
"W+	c #0039AD",
"X+	c #003DAF",
"Y+	c #003AAD",
"Z+	c #0038AC",
"`+	c #0036AB",
" @	c #0034AA",
".@	c #0032A8",
"+@	c #0031A8",
"@@	c #0038AD",
"#@	c #003DB0",
"$@	c #024DB9",
"%@	c #046BCA",
"&@	c #069FE8",
"*@	c #2A6EE0",
"=@	c #2870E2",
"-@	c #2280E7",
";@	c #17A2F3",
">@	c #149FF0",
",@	c #0E85DD",
"'@	c #0359C0",
")@	c #296DE1",
"!@	c #296EE1",
"~@	c #1D89E9",
"{@	c #1C90EB",
"]@	c #15A5F3",
"^@	c #14A8F4",
"/@	c #12B1FA",
"(@	c #2771E2",
"_@	c #1F88E8",
":@	c #169BEF",
"<@	c #14A1F1",
"[@	c #2671E2",
"}@	c #2577E3",
"|@	c #2672E2",
"1@	c #237DE6",
"2@	c #12A4F2",
"3@	c #2576E3",
"4@	c #237EE6",
"5@	c #1A94ED",
"6@	c #13A5F2",
"7@	c #0FADF3",
"8@	c #2575E3",
"9@	c #2478E4",
"0@	c #159EF0",
"a@	c #0EADF4",
"b@	c #237AE5",
"c@	c #0DB0F5",
"d@	c #2377E4",
"e@	c #227CE5",
"f@	c #1F85E8",
"g@	c #159FEF",
"h@	c #0EAFF5",
"i@	c #2582E9",
"j@	c #2382E8",
"k@	c #2286E9",
"l@	c #2087E9",
"m@	c #105AC9",
"n@	c #1B75DD",
"o@	c #2287EA",
"p@	c #218AEB",
"q@	c #11A8F3",
"r@	c #0FABF3",
"s@	c #0AB5F6",
"t@	c #214BC9",
"u@	c #1648C2",
"v@	c #0E44BB",
"w@	c #0843B7",
"x@	c #0541B4",
"y@	c #013EB0",
"z@	c #003BAD",
"A@	c #0039AB",
"B@	c #003AAC",
"C@	c #003CAE",
"D@	c #0D5AC7",
"E@	c #1D7FE3",
"F@	c #218BEC",
"G@	c #1D8AEA",
"H@	c #1C8CEA",
"I@	c #1798ED",
"J@	c #0DB4F6",
"K@	c #3353D8",
"L@	c #3354D8",
"M@	c #2E55D7",
"N@	c #2955D3",
"O@	c #2554D0",
"P@	c #2053CC",
"Q@	c #1A51C8",
"R@	c #154FC5",
"S@	c #124CC1",
"T@	c #0D4ABE",
"U@	c #0A46B9",
"V@	c #0643B5",
"W@	c #023FB1",
"X@	c #0038AB",
"Y@	c #0036A9",
"Z@	c #0344B4",
"`@	c #1469D2",
" #	c #1F8BEA",
".#	c #1E8DEB",
"+#	c #12A7F2",
"@#	c #0CB3F5",
"##	c #3552D8",
"$#	c #3553D9",
"%#	c #3556DA",
"&#	c #3458DB",
"*#	c #345BDD",
"=#	c #345EDE",
"-#	c #3460DF",
";#	c #3263E0",
">#	c #3065DF",
",#	c #2D66DE",
"'#	c #2A65DC",
")#	c #2765DA",
"!#	c #2365D8",
"~#	c #1F63D5",
"{#	c #1A61D1",
"]#	c #155BCB",
"^#	c #1157C6",
"/#	c #0C51C0",
"(#	c #074BBB",
"_#	c #0140B1",
":#	c #0A56C2",
"<#	c #1A7EE1",
"[#	c #1D8DEB",
"}#	c #0FB0F5",
"|#	c #3554D9",
"1#	c #3455D9",
"2#	c #3358DA",
"3#	c #3259DB",
"4#	c #315CDB",
"5#	c #305FDC",
"6#	c #2F61DD",
"7#	c #2F64DF",
"8#	c #2E67E0",
"9#	c #2E6AE2",
"0#	c #2D6EE3",
"a#	c #2D71E4",
"b#	c #2B74E5",
"c#	c #2976E5",
"d#	c #2878E5",
"e#	c #267AE5",
"f#	c #227DE5",
"g#	c #1F7AE1",
"h#	c #1771D8",
"i#	c #1975DB",
"j#	c #1E87E8",
"k#	c #3551D8",
"l#	c #3356DA",
"m#	c #325BDB",
"n#	c #305DDC",
"o#	c #2E62DD",
"p#	c #2D64DE",
"q#	c #2B69DF",
"r#	c #2971E2",
"s#	c #257AE5",
"t#	c #247EE6",
"u#	c #2381E7",
"v#	c #2284E9",
"w#	c #2186E9",
"x#	c #1F87E9",
"y#	c #3550D8",
"z#	c #3553D8",
"A#	c #3357DA",
"B#	c #3259DA",
"C#	c #315BDB",
"D#	c #3060DC",
"E#	c #2D65DE",
"F#	c #2D67DF",
"G#	c #2B6AE0",
"H#	c #2677E3",
"I#	c #2479E4",
"J#	c #3650D8",
"K#	c #305EDC",
"L#	c #2F60DC",
"M#	c #2E62DE",
"N#	c #1F89E9",
"O#	c #3450D8",
"P#	c #364FD8",
"Q#	c #3456DA",
"R#	c #2F60DD",
"S#	c #2E63DE",
"T#	c #2C67DF",
"U#	c #2970E1",
"V#	c #3258DA",
"W#	c #315CDC",
"X#	c #2C69DF",
"Y#	c #2083E8",
"Z#	c #3454D9",
"`#	c #3356D9",
" $	c #2F5FDC",
".$	c #2E64DE",
"+$	c #2D66DF",
"@$	c #2B6BE0",
"#$	c #2773E3",
"$$	c #344FD8",
"%$	c #3651D8",
"&$	c #325ADB",
"*$	c #2E63DD",
"=$	c #2C68DF",
"-$	c #2A6DE1",
";$	c #1A91EB",
">$	c #3456D9",
",$	c #3257DA",
"'$	c #2E64DD",
")$	c #286FE1",
"!$	c #227DE6",
"~$	c #2184E7",
"{$	c #3350D7",
"]$	c #3552D9",
"^$	c #2E61DD",
"/$	c #2870E1",
"($	c #2181E6",
"_$	c #354FD7",
":$	c #3258DB",
"<$	c #2C66DF",
"[$	c #3451D8",
"}$	c #2F5FDD",
"|$	c #2872E2",
"1$	c #247AE4",
"2$	c #2477E4",
"3$	c #3253D8",
"4$	c #315DDC",
"5$	c #3354D9",
"6$	c #315ADB",
"7$	c #2C67DE",
"8$	c #2A6AE0",
"9$	c #286CE0",
"0$	c #3257D9",
"a$	c #2C66DE",
"b$	c #305CDB",
"                                . + @ # $ % & * = - ; > , ' ) ! ~ {                             ",
"                    ] ^ / ( _ : < [ } | 1 % 2 3 4 5 6 7 8 ' 9 0 a b c d d e f g h               ",
"              i j k l m n o p q r s t } | u v 2 w x y z 7 , ' A ) a c B C e f D D D D g         ",
"            E F G H I J K L M N _ O P Q R S $ v 2 w x - z 7 , T U ) V c B C g D D D D e         ",
"            W X F i Y I Z K ` (  ...+.P @.#.$.$ %.&.*.5 =.z -.> T U ! ;.>.B C g D D D D ,.      ",
"            '.W ).!.j ~.{.].^./ ( /.r +.[ } #.# (._.3 :.5 6 <.[.' }.0 ! ;.>.d C f D D D         ",
"            |.1.2.3.!.4.5.6.m L 7.8./.9.0.[ } | u % _.3 :.5 6 a.8 ' }.) ! ;.B d C f D D D       ",
"            b.|.c.d.F e.H f.g.K L 7.N _ h.P t R S i.j.k.*.4 y z 7 , T }.! V l.B C m.D D D       ",
"            n.o.1.p.).F i Y I Z K ` q.r._ s.P @.@ S $ v 3 *.t.=.z -.> T U ! V c B d e D D       ",
"            u.v.b.1.w.X !.x.Y I Z ^ y.z.N ..s.A.@.@ # B.v C.*.t.- z -., D.U ) ;.>.d C g f       ",
"            E.u.F.G.1.W ).!.H.I.{.].^./ ( /.9.J.t } | u % _.3 x 5 6 K.-.' }.U ! ;.>.d C h       ",
"            L.M.N.O.|.P.Q.R.e.S.T.U.V.L 7.p W.X.Y.Z.`. +.+j.2 w x ++6 7 > ' }.! V l.>.d C       ",
"            @+#+M.N.$+%+c.d.3.e.H f.J &+y.*+=+-+;+>+,+'+)+!+~+{+]+^+y /+K.8 (+_+) a c B :+      ",
"            <+@+[+E.v.$+1.w.d.!.G H I Z }+|+1+2+3+4+5+6+7+8+9+0+a+b+c+d+e+f+g+h+i+;.j+>.>.      ",
"            k+l+@+M.u.F.m+P.W n+o+j 5.I Z p+q+r+s+t+u+v+w+x+y+z+A+B+C+D+E+F+G+H+I+J+K+! ;.      ",
"            L+M+<+N+O+P+n.Q+P.2.3.o+j R+{.].^.S+T+U+V+x+W+X+Y+Z+`+ @.@+@.@ @`+@@#@$@%@&@        ",
"              M+*@=@#+M.N.O.Q+-@2.3.G S.I.J &+L q.;@>@,@'@                                      ",
"                )@!@=@#+E.N.$+1.w.d.F ~@H {@J K n M N ]@^@/@                                    ",
"                    <+(@L.E.v.b.1.w.)._@i Y I U.p+` :@ .<@+.A.                                  ",
"                      [@N+L.}@n.G.P.W ).!.j ~.{.].L y.p /.9.J.[ }                               ",
"                          |@M.N.n.1@'.2.R.e.j I.6.m L 7.( /.9.2@t }                             ",
"                              3@N.O.4@P.2.R.G S.I.U.5@L o p q r 6@t R 7@                        ",
"                                8@9@o.|.'.).F G Y I Z p+n o 0@_ s.P @.@ a@S                     ",
"                                    b@b.1.W ).!.x.Y I Z ^./ z./...+.A.@.| S c@                  ",
"                                      d@e@1.W f@o+H.~.{.Z ^./ p g@9.+.[ } | h@% _.              ",
"                                          i@j@k@l@e.j f.{.].L 7.p _ h.J.t R | $ % _.            ",
"                                            m@n@o@p@G Y f.J K ` o N _ s.P q@r@S i.v k.s@        ",
"            t@u@v@w@x@y@z@A@A@B@z@C@y+X+y@X+t+z@D@E@F@G@H@I.Z p+I@o N q s.P @.@ $.$ J@k.        ",
"            K@L@M@N@O@P@Q@R@S@T@U@V@W@z@A@A@B@X@Y@Z@`@ #.#Y {.Z p+/ ( /.<@+.+#@.@ $.% @#        ",
"            ##$#%#&#*#=#-#;#>#,#'#)#!#~#{#]#^#/#(#_#C@:#<#[#I.l ].L / p q r < t } | }#%         ",
"              ##|#1#2#3#4#5#6#7#8#9#0#a#b#c#d#e#$+f#g#h#i#j#[#I.{.m n 7.p q : < t } | #         ",
"              k###1#l#2#m#n#5#o#p#,#q#M+l+r#L.P+s#t#u#v#w#x#G Y I J K L o  ._ s.P Q r@|         ",
"              k#y#z#1#A#B#C#n#D#o#E#F#G#M+<+N+L.H#I#b.1.W )._@i ~.{.Z p+/ :@ ...s.+#Q           ",
"                J#k#$#1#A#B#C#K#L#M#E#F#G#k+<+(@L.u.n.G.P.W ).N#4.~.I Z ^.y.8./...0.A.          ",
"                O#P#k#|#Q#A#3#4#K#R#S#E#T#G#k+U#N+M.u.O.Q+P.2.3.o+S.R+{.K L 7.p q :             ",
"                  P#J###1#l#V#m#W#5#6#S#,#X#L+l+U##+E.v.O.|.'.Y#F G H@f.6.K n o  ._             ",
"                    P#J###Z#`#V#m#4# $o#.$+$X#@$!@@+#$E.v.b.1.W X F G Y I J K ` :@              ",
"                    y#P#k#$#1#A#B#m#K#L#o#E#F#q#k+<+@+O+}@F.b.1.W ).!.x.~.{.Z ^.                ",
"                      $$P#%$$#1#A#&$W#K#R#*$E#=$G#-$<+N+M.u.F.G.P.Q.).o+j I.;$                  ",
"                        O#J#k#Z#>$,$&$4#K#6#'$,#=$@$)@)$#+M.N.O.!$P.~$R.e.H@                    ",
"                          {$y#]$Z#Q#V#&$4#5#^$S#+$=$@$!@/$#+E.N.O.1.($d.R.                      ",
"                            _$k#]$1#A#:$C#K# $o#p#<$q#M+<+@+L.u.v.$+1.($                        ",
"                                [$z#1#A#3#C#K#}$o#E#T#G#k+l+|$O+P+1$b.                          ",
"                                  [$$#1#A#&$4#K#R#*$E#=$G#k+U#N+M.2$                            ",
"                                    3$Z#l#2#&$4$5#^$.$+$=$@$l+/$                                ",
"                                        5$l#2#6$4$5#^$p#7$8$9$                                  ",
"                                            0$3#C#K#D#^$a$                                      ",
"                                                3#C#b$                                          "};
