/* XPM */
static char * stim24_xpm[] = {
"24 24 434 2",
"  	c None",
". 	c #E2DDDC",
"+ 	c #DCDDE0",
"@ 	c #D6DEE3",
"# 	c #D2DFE6",
"$ 	c #D5DEE2",
"% 	c #DBDCDE",
"& 	c #DFD9D9",
"* 	c #DDDDDE",
"= 	c #C6D9E2",
"- 	c #9FD0E6",
"; 	c #77C7EA",
"> 	c #5BC1EC",
", 	c #4EBFED",
"' 	c #4FBFED",
") 	c #5BC2ED",
"! 	c #77C8EA",
"~ 	c #C5D7E1",
"{ 	c #D9D9DA",
"] 	c #CFD8DE",
"^ 	c #93CBE4",
"/ 	c #4DBBEB",
"( 	c #29B6F1",
"_ 	c #2EB8F1",
": 	c #43BEF0",
"< 	c #51C1EF",
"[ 	c #42BDF0",
"} 	c #2DB8F1",
"| 	c #28B6F0",
"1 	c #4DBDEC",
"2 	c #93CCE5",
"3 	c #CDD7DD",
"4 	c #BCD2DD",
"5 	c #66BDE6",
"6 	c #26B1F0",
"7 	c #44BBEF",
"8 	c #86CCEB",
"9 	c #BAD9E8",
"0 	c #DAE2E6",
"a 	c #DAE1E6",
"b 	c #D1DFE6",
"c 	c #B8D8E7",
"d 	c #83CBEA",
"e 	c #40BCEF",
"f 	c #24B5F0",
"g 	c #67C2E8",
"h 	c #BBD3DE",
"i 	c #B9CFDA",
"j 	c #56B7E5",
"k 	c #27B0EF",
"l 	c #73C4EA",
"m 	c #C3D9E4",
"n 	c #E2E1E3",
"o 	c #E7E3E2",
"p 	c #E7E3E3",
"q 	c #E8E3E3",
"r 	c #E8E4E3",
"s 	c #E4E2E4",
"t 	c #C2D9E5",
"u 	c #6FC5E9",
"v 	c #58BFE9",
"w 	c #BAD1DC",
"x 	c #C6CFD5",
"y 	c #62B6E1",
"z 	c #26ACEE",
"A 	c #80C5E6",
"B 	c #D5DBDF",
"C 	c #E4DFDE",
"D 	c #E3DFDF",
"E 	c #E2DFDF",
"F 	c #E3E0E0",
"G 	c #E4E0E0",
"H 	c #E4E1E1",
"I 	c #E6E2E2",
"J 	c #D7DEE2",
"K 	c #7DC7E7",
"L 	c #23B5EF",
"M 	c #65C1E6",
"N 	c #C7D1D7",
"O 	c #CDCDCE",
"P 	c #8ABCD9",
"Q 	c #24A7EB",
"R 	c #71BDE5",
"S 	c #D3D7DB",
"T 	c #E1DBDA",
"U 	c #DFDBDA",
"V 	c #DFDBDB",
"W 	c #E0DDDC",
"X 	c #E2DDDD",
"Y 	c #E3DEDE",
"Z 	c #E4DFDF",
"` 	c #E5E1E0",
" .	c #E8E2E1",
"..	c #D6DCE0",
"+.	c #6DC3E6",
"@.	c #24B5EE",
"#.	c #8FC8E0",
"$.	c #B4C4CF",
"%.	c #45AAE2",
"&.	c #34A9E9",
"*.	c #A5C5D8",
"=.	c #C8CED4",
"-.	c #CACFD4",
";.	c #C7CFD5",
">.	c #D2D4D6",
",.	c #DCD8D8",
"'.	c #D9D8D9",
").	c #CED4D9",
"!.	c #CDD4D9",
"~.	c #CFD5DA",
"{.	c #CDD6DB",
"].	c #CDD7DC",
"^.	c #CED7DD",
"/.	c #D0D8DD",
"(.	c #A7CDDD",
"_.	c #31B6EB",
":.	c #4ABCEA",
"<.	c #BACDD6",
"[.	c #C8C3C2",
"}.	c #8EB8D1",
"|.	c #1AA0EC",
"1.	c #1CA2EE",
"2.	c #42A8E3",
"3.	c #46A9E2",
"4.	c #58A9D9",
"5.	c #5CA9D6",
"6.	c #4DABDF",
"7.	c #9BC1D6",
"8.	c #DAD5D5",
"9.	c #C3CDD4",
"0.	c #64B6DD",
"a.	c #54B3E0",
"b.	c #5DB3DC",
"c.	c #4CB6E6",
"d.	c #49B8E8",
"e.	c #4AB9E8",
"f.	c #4ABAE8",
"g.	c #45B9E8",
"h.	c #1AB4F0",
"i.	c #1DB6F2",
"j.	c #96C8DD",
"k.	c #C9C4C3",
"l.	c #BEBFC1",
"m.	c #67ACD5",
"n.	c #079BF3",
"o.	c #009CF8",
"p.	c #079CF3",
"q.	c #089CF3",
"r.	c #189AE7",
"s.	c #1C9AE3",
"t.	c #09A0F2",
"u.	c #69B3DC",
"v.	c #B7C8D2",
"w.	c #A1C0D0",
"x.	c #37A9E0",
"y.	c #24A7E5",
"z.	c #23A8E4",
"A.	c #04ADF6",
"B.	c #05AFF7",
"C.	c #03B0F8",
"D.	c #03B1F8",
"E.	c #04B2F7",
"F.	c #00B4FA",
"G.	c #08B4F7",
"H.	c #71C2E3",
"I.	c #C5C7C9",
"J.	c #B4BABF",
"K.	c #4DA3D8",
"L.	c #0198F5",
"M.	c #019AF7",
"N.	c #1899E8",
"O.	c #299ADF",
"P.	c #369BD8",
"Q.	c #269CDF",
"R.	c #03A0F5",
"S.	c #1EA5EC",
"T.	c #35A9E5",
"U.	c #44A7DB",
"V.	c #2DA5E0",
"W.	c #26A6E4",
"X.	c #23A7E4",
"Y.	c #08ADF5",
"Z.	c #1DADEB",
"`.	c #0CAFF4",
" +	c #11B0F1",
".+	c #13B0F0",
"++	c #02B4F9",
"@+	c #57BDE7",
"#+	c #BFC8CC",
"$+	c #ABB4BD",
"%+	c #409BDA",
"&+	c #0094F5",
"*+	c #0396F5",
"=+	c #0A96F0",
"-+	c #1197EC",
";+	c #2397DF",
">+	c #2099E0",
",+	c #029FF6",
"'+	c #09A1F3",
")+	c #11A3EF",
"!+	c #25A1E2",
"~+	c #14A4EA",
"{+	c #0FA7EF",
"]+	c #1CA6E7",
"^+	c #0AACF3",
"/+	c #27AAE5",
"(+	c #10AEF1",
"_+	c #17ADED",
":+	c #1AADEB",
"<+	c #00B2FA",
"[+	c #00B1F9",
"}+	c #BAC6CD",
"|+	c #A8B1B9",
"1+	c #3E99D8",
"2+	c #0B91ED",
"3+	c #1E92E1",
"4+	c #1E92E0",
"5+	c #0895F0",
"6+	c #1095E9",
"7+	c #1896E2",
"8+	c #079CF2",
"9+	c #319FDD",
"0+	c #3EA3DB",
"a+	c #42A2D6",
"b+	c #1BA2E7",
"c+	c #13A5ED",
"d+	c #1DA4E6",
"e+	c #09AAF3",
"f+	c #26A8E5",
"g+	c #0FABF1",
"h+	c #16ABEC",
"i+	c #19ABEB",
"j+	c #00B0FA",
"k+	c #B9C6CD",
"l+	c #A7ADB3",
"m+	c #499BD3",
"n+	c #0791EF",
"o+	c #1291E8",
"p+	c #1E91DE",
"q+	c #0C95EC",
"r+	c #1096E9",
"s+	c #1D9CE3",
"t+	c #10A0ED",
"u+	c #1DA0E6",
"v+	c #28A1E0",
"w+	c #2BA3E0",
"x+	c #23A4E2",
"y+	c #09ABF4",
"z+	c #25A8E5",
"A+	c #0FACF1",
"B+	c #16ACED",
"C+	c #19ACEB",
"D+	c #00B3FA",
"E+	c #02B3FA",
"F+	c #58BDE7",
"G+	c #BCC5CA",
"H+	c #A8A9AB",
"I+	c #5D9DCA",
"J+	c #0691F1",
"K+	c #0093F7",
"L+	c #0594F3",
"M+	c #0497F4",
"N+	c #1497E7",
"O+	c #1C97E1",
"P+	c #049EF4",
"Q+	c #05A0F4",
"R+	c #02A3F7",
"S+	c #06A5F5",
"T+	c #0FA6F0",
"U+	c #1DA5E8",
"V+	c #1FA5E5",
"W+	c #0BACF4",
"X+	c #11AEF1",
"Y+	c #19AEED",
"Z+	c #1BAEEB",
"`+	c #01B5FA",
" @	c #09B6F8",
".@	c #BFC2C4",
"+@	c #A8A5A3",
"@@	c #7BA2BE",
"#@	c #1792E6",
"$@	c #1D96E7",
"%@	c #47A0DA",
"&@	c #4DA4DB",
"*@	c #61A8D3",
"=@	c #69A9CF",
"-@	c #51AADD",
";@	c #4FADE0",
">@	c #50AEE0",
",@	c #51B1E2",
"'@	c #50B3E3",
")@	c #59B3DF",
"!@	c #61B3DA",
"~@	c #58B8E3",
"{@	c #6FB9DA",
"]@	c #61BBE2",
"^@	c #66BCE1",
"/@	c #65BBDF",
"(@	c #21B7F0",
"_@	c #1EBAF4",
":@	c #95C8DC",
"<@	c #C1BEBD",
"[@	c #96A5B1",
"}@	c #3B96D5",
"|@	c #2B95DD",
"1@	c #8EABBE",
"2@	c #B2B7BB",
"3@	c #B6BABD",
"4@	c #B9BCBE",
"5@	c #B7BEC2",
"6@	c #B9BFC4",
"7@	c #BBC2C6",
"8@	c #BCC4C8",
"9@	c #BEC6CA",
"0@	c #C1C8CB",
"a@	c #C3C9CD",
"b@	c #C4CBCF",
"c@	c #C8CDD0",
"d@	c #C9CFD2",
"e@	c #CBD0D3",
"f@	c #A5C7D5",
"g@	c #31B9EB",
"h@	c #4CC1ED",
"i@	c #B5C9D2",
"j@	c #A2A3A4",
"k@	c #709FBF",
"l@	c #1C93E1",
"m@	c #569ECC",
"n@	c #ACB2B7",
"o@	c #BDBAB9",
"p@	c #BEBCBB",
"q@	c #C0BEBE",
"r@	c #C2C0C0",
"s@	c #C4C3C2",
"t@	c #C6C5C5",
"u@	c #C9C7C7",
"v@	c #CBC9C9",
"w@	c #CDCBCB",
"x@	c #CFCDCD",
"y@	c #D1CFCE",
"z@	c #D4D1D0",
"A@	c #C4CDD1",
"B@	c #63BEDF",
"C@	c #25BCF1",
"D@	c #8ECAE0",
"E@	c #C3C4C6",
"F@	c #9AA4AB",
"G@	c #509CCC",
"H@	c #1B96E2",
"I@	c #61A1C8",
"J@	c #ABB3B8",
"K@	c #BCBAB9",
"L@	c #BEBCBC",
"M@	c #BFBFBF",
"N@	c #C2C1C1",
"O@	c #C4C3C4",
"P@	c #C6C6C6",
"Q@	c #C8C8C8",
"R@	c #CACACA",
"S@	c #CDCCCC",
"T@	c #D0CECD",
"U@	c #C1CBCF",
"V@	c #6EBFDC",
"W@	c #22BBF0",
"X@	c #68C8E9",
"Y@	c #BECBCF",
"Z@	c #90A4B2",
"`@	c #469CD2",
" #	c #1C99E3",
".#	c #55A1CE",
"+#	c #98AFBC",
"@#	c #B6B9BA",
"##	c #BEBDBD",
"$#	c #C1C0BF",
"%#	c #C3C2C2",
"&#	c #C5C4C4",
"*#	c #C8C7C6",
"=#	c #CAC9C8",
"-#	c #C6C9CA",
";#	c #A8C4CF",
">#	c #60BCDD",
",#	c #23BBF0",
"'#	c #5AC6EB",
")#	c #B3CDD6",
"!#	c #91A5B3",
"~#	c #52A1D0",
"{#	c #1D9DE5",
"]#	c #30A0DD",
"^#	c #63A7CC",
"/#	c #90B1C2",
"(#	c #A7B7BF",
"_#	c #B1BBC1",
":#	c #B3BEC3",
"<#	c #ADBFC6",
"[#	c #98BCCC",
"}#	c #6CB8D7",
"|#	c #35B7E7",
"1#	c #24BCF1",
"2#	c #67C6E8",
"3#	c #B1CCD5",
"4#	c #9DA7AE",
"5#	c #75A8C5",
"6#	c #3FA5DC",
"7#	c #21A4E7",
"8#	c #22A5E5",
"9#	c #31A8E0",
"0#	c #3CABDD",
"a#	c #3EADDF",
"b#	c #33B0E3",
"c#	c #25B2EA",
"d#	c #27B8EF",
"e#	c #4BC0EB",
"f#	c #8BC7DD",
"g#	c #BAC7CC",
"h#	c #A3A5A6",
"i#	c #99ACB6",
"j#	c #80AEC6",
"k#	c #64AFD5",
"l#	c #4FB0DE",
"m#	c #45B2E3",
"n#	c #47B5E4",
"o#	c #53B9E3",
"p#	c #6CBEDE",
"q#	c #8FC2D6",
"r#	c #AEC3CC",
"s#	c #BCBEBF",
"t#	c #A6A3A3",
"u#	c #A7AAAD",
"v#	c #A7B0B6",
"w#	c #A8B6BD",
"x#	c #AAB9BF",
"y#	c #AEB8BD",
"z#	c #B3B6B8",
"A#	c #B5B3B2",
"                . + @ # # $ % &                 ",
"            * = - ; > , ' ) ! - ~ {             ",
"          ] ^ / ( _ : < < [ } | 1 2 3           ",
"        4 5 6 7 8 9 # 0 a b c d e f g h         ",
"      i j k l m n o o o p q r s t u f v w       ",
"    x y z A B C D E D D F G H I o J K L M N     ",
"  O P Q R S T U V V V W X Y Z G `  ...+.@.#.O   ",
"  $.%.&.*.=.-.-.;.>.,.'.).!.~.{.].^./.(._.:.<.  ",
"[.}.|.1.2.3.4.5.6.7.8.9.0.a.b.c.d.e.f.g.h.i.j.k.",
"l.m.n.o.p.q.r.s.t.u.v.w.x.y.z.A.B.C.D.E.F.G.H.I.",
"J.K.L.M.N.O.P.Q.R.S.T.U.V.W.X.Y.Z.`. +.+F.++@+#+",
"$+%+&+*+=+-+;+>+,+'+)+!+~+{+]+^+/+(+_+:+<+[+d.}+",
"|+1+2+3+4+5+6+7+8+9+0+a+b+c+d+e+f+g+h+i+j+j+e.k+",
"l+m+n+o+p+q+r+7+8+s+t+u+v+w+x+y+z+A+B+C+D+E+F+G+",
"H+I+J+K+L+M+N+O+P+Q+R+S+T+U+V+W+/+X+Y+Z+`+ @H..@",
"+@@@#@$@%@&@*@=@-@;@>@,@'@)@!@~@{@]@^@/@(@_@:@<@",
"  [@}@|@1@2@3@4@5@6@7@8@9@0@a@b@c@d@e@f@g@h@i@  ",
"  j@k@l@m@n@o@p@q@r@s@t@u@v@w@x@y@z@A@B@C@D@E@  ",
"    F@G@H@I@J@K@L@M@N@O@P@Q@R@S@T@U@V@W@X@Y@    ",
"      Z@`@ #.#+#@###$#%#&#*#=#-#;#>#,#'#)#      ",
"        !#~#{#]#^#/#(#_#:#<#[#}#|#1#2#3#        ",
"          4#5#6#7#8#9#0#a#b#c#d#e#f#g#          ",
"            h#i#j#k#l#m#n#o#p#q#r#s#            ",
"                t#u#v#w#x#y#z#A#                "};
