/* XPM */
static char * stim24_xpm[] = {
"24 24 225 2",
"  	c None",
". 	c #F1F1F1",
"+ 	c #F0F0F0",
"@ 	c #EFEFEF",
"# 	c #E8E8E8",
"$ 	c #D3D3D5",
"% 	c #CACACD",
"& 	c #C5C5C8",
"* 	c #C7C7CA",
"= 	c #CCCCCF",
"- 	c #D3D3D6",
"; 	c #E9E9EA",
"> 	c #E3E3E4",
", 	c #C2C2C7",
"' 	c #005BFF",
") 	c #005AFF",
"! 	c #045CFD",
"~ 	c #C0C0C4",
"{ 	c #DFDFE1",
"] 	c #D0D0D2",
"^ 	c #005BFE",
"/ 	c #095CF1",
"( 	c #2664D2",
"_ 	c #396BC4",
": 	c #386AC4",
"< 	c #2564D3",
"[ 	c #085DF2",
"} 	c #C9C9CC",
"| 	c #C5C5C9",
"1 	c #005AFE",
"2 	c #135EE7",
"3 	c #6A86BC",
"4 	c #BFC0C6",
"5 	c #E0E0E1",
"6 	c #EEEEEE",
"7 	c #DFDFE0",
"8 	c #BEBFC5",
"9 	c #6D89BC",
"0 	c #1861E3",
"a 	c #BFBFC3",
"b 	c #CFCFD1",
"c 	c #3269D1",
"d 	c #BEC1C9",
"e 	c #C8C9CD",
"f 	c #4473C8",
"g 	c #CAC8CC",
"h 	c #2E67D4",
"i 	c #D2D2D5",
"j 	c #DDDDDE",
"k 	c #4775C8",
"l 	c #0059FE",
"m 	c #E1E0E2",
"n 	c #BFBFC1",
"o 	c #0058FC",
"p 	c #0D5BED",
"q 	c #B8BBC7",
"r 	c #CCCDD1",
"s 	c #1C62E1",
"t 	c #BCBCC0",
"u 	c #E8E7E8",
"v 	c #3E6CC8",
"w 	c #BDD0F1",
"x 	c #BFD2F3",
"y 	c #DAE3F1",
"z 	c #C2D4F3",
"A 	c #C6D6F2",
"B 	c #D0DDF2",
"C 	c #CAD8F2",
"D 	c #CCDAF1",
"E 	c #C6D7F2",
"F 	c #C7D7F2",
"G 	c #5D80C3",
"H 	c #0059FF",
"I 	c #CFCED1",
"J 	c #0058FF",
"K 	c #0C54E0",
"L 	c #0E5DF5",
"M 	c #EDEDEE",
"N 	c #377BFA",
"O 	c #0E59E3",
"P 	c #0257F7",
"Q 	c #CECED1",
"R 	c #C4C4C6",
"S 	c #0057FB",
"T 	c #014FE2",
"U 	c #0F5EEE",
"V 	c #0B4FCD",
"W 	c #0058FE",
"X 	c #0659FA",
"Y 	c #709FF7",
"Z 	c #72A1F8",
"` 	c #407DE7",
" .	c #1660E6",
"..	c #125ADF",
"+.	c #0051E9",
"@.	c #0056FB",
"#.	c #C6C4C8",
"$.	c #C0BEC3",
"%.	c #0052EF",
"&.	c #0156F8",
"*.	c #1263FC",
"=.	c #2763D7",
"-.	c #2872F9",
";.	c #0C57E1",
">.	c #0047D1",
",.	c #0047CE",
"'.	c #C0C0C3",
").	c #0244C5",
"!.	c #1C65EC",
"~.	c #1864EF",
"{.	c #0057FF",
"].	c #004AD7",
"^.	c #0858F4",
"/.	c #91B2ED",
"(.	c #92B3EE",
"_.	c #3076F9",
":.	c #0E58E2",
"<.	c #0047D0",
"[.	c #0048D3",
"}.	c #0056F9",
"|.	c #BEBEC1",
"1.	c #CFCFD2",
"2.	c #0056FD",
"3.	c #0149D8",
"4.	c #004BDC",
"5.	c #0C59F2",
"6.	c #B5C6E7",
"7.	c #B8C9EA",
"8.	c #3875E4",
"9.	c #145DE3",
"0.	c #135ADF",
"a.	c #0046CF",
"b.	c #0056FF",
"c.	c #0049D8",
"d.	c #0055FA",
"e.	c #C2C2C5",
"f.	c #DADADC",
"g.	c #024CDF",
"h.	c #0A55E2",
"i.	c #0247D0",
"j.	c #0047D2",
"k.	c #0054F6",
"l.	c #ECECED",
"m.	c #0056FE",
"n.	c #2461D8",
"o.	c #729FF0",
"p.	c #74A0F0",
"q.	c #A0BAEA",
"r.	c #7EA7EF",
"s.	c #719EF0",
"t.	c #729EF0",
"u.	c #7CA2E7",
"v.	c #94B2E9",
"w.	c #6C9BF0",
"x.	c #8BA9E3",
"y.	c #306AD7",
"z.	c #E5E5E6",
"A.	c #D7D7DA",
"B.	c #0055F5",
"C.	c #195DE8",
"D.	c #CBCDD5",
"E.	c #D9D9DC",
"F.	c #2965DD",
"G.	c #0053F9",
"H.	c #C3C3C8",
"I.	c #EAEAEB",
"J.	c #0055FC",
"K.	c #4174E2",
"L.	c #E0E0E2",
"M.	c #5B85DA",
"N.	c #0055FE",
"O.	c #E3E3E5",
"P.	c #0055FD",
"Q.	c #4E7EE3",
"R.	c #D8DADF",
"S.	c #DEDEE2",
"T.	c #618ADF",
"U.	c #0155FE",
"V.	c #0E58E7",
"W.	c #DAD8DC",
"X.	c #E3E3E6",
"Y.	c #0054FB",
"Z.	c #2467F2",
"`.	c #91A9DF",
" +	c #DCDCE1",
".+	c #ECECEC",
"++	c #E1E1E3",
"@+	c #A1B4DD",
"#+	c #2E6EEF",
"$+	c #0054FE",
"%+	c #D8D8DB",
"&+	c #E8E7E9",
"*+	c #0053F0",
"=+	c #135FF9",
"-+	c #467BEA",
";+	c #678FE5",
">+	c #6B92E5",
",+	c #5182E8",
"'+	c #2066F5",
")+	c #0054FF",
"!+	c #0053F2",
"~+	c #EEEBEE",
"{+	c #EDE9ED",
"]+	c #E6E3E7",
"^+	c #0252E7",
"/+	c #0052F0",
"(+	c #0052F2",
"_+	c #0252EB",
":+	c #DDD9DE",
"<+	c #EBE6EB",
"[+	c #F0EDF0",
"}+	c #EAE4E7",
"|+	c #E7E1E6",
"1+	c #E3DEE3",
"2+	c #E1DCE1",
"3+	c #DEDAE0",
"4+	c #DDD8DD",
"5+	c #DFDADF",
"6+	c #E1DDE1",
"7+	c #E6E1E5",
"8+	c #E8E3E7",
"9+	c #DBD6DB",
"0+	c #DCD6DB",
"a+	c #DBD5DA",
"b+	c #DDD6DB",
"                    . + + @                     ",
"              + # $ % & * = - ; .               ",
"          . > ,     ' ' ) ' !   ~ { +           ",
"        + ]   ^ ' / ( _ : < [ ) '   } @         ",
"      + |   1 2 3 4 5 6 6 7 8 9 0 )   a @       ",
"    + b   ) c d @ + + + + + + + e f )   g @     ",
"    >   1 h i + + + + + + + + + + j k l   m     ",
"  + n o p q + + + + + + + + + + + + r s o t +   ",
"  u   l v w x y z A + + B C D E E F F G H   u   ",
"  I   J J J J K l L M + N J O H J J H H J P Q   ",
". R S J J T U V W X Y Z `  ...J +.J +.J J @.#.. ",
"+ $.S %.J &.*.=.J J J J -.J ;.J >.J ,.J J @.'.. ",
"+ | S ).!.~.{.].{.^./.(._.{.:.{.<.{.[.{.{.}.|.+ ",
"@ 1.}.2.2.3.{.4.{.5.6.7.8.9.0.{.a.b.c.{.{.d.e.. ",
"  f.  b.b.b.b.g.{.b.b.{.b.b.h.{.i.{.j.{.b.k.I   ",
"  l.  m.n.o.p.q.r.s.t.t.t.o.u.o.v.w.x.y.b.  z.  ",
"  + A.B.C.D.+ + + + + + + + + + + + E.F.G.H.+   ",
"    I.  J.K.L.+ + + + + + + + + + z.M.N.  >     ",
"    + O.  P.Q.R.+ + + + + + + + S.T.U.V.W.+     ",
"      + X.  Y.Z.`. +.++ + 6 ++@+#+$+V.%+@       ",
"        + &+  *+$+=+-+;+>+,+'+)+!+  m 6         ",
"          ~+{+]+  ^+/+!+(+/+_+  :+<+[+          ",
"              }+|+1+2+3+4+5+6+7+8+              ",
"                    9+0+a+b+                    "};
