/* XPM */
static char * stim16_xpm[] = {
"16 16 134 2",
"  	c None",
". 	c #169CEF",
"+ 	c #12A4F1",
"@ 	c #0FADF4",
"# 	c #0CB4F6",
"$ 	c #09BCF8",
"% 	c #06C2FA",
"& 	c #04C7FC",
"* 	c #02CCFE",
"= 	c #00D0FF",
"- 	c #2085E8",
"; 	c #1C8DEA",
"> 	c #1996ED",
", 	c #159EF0",
"' 	c #12A7F2",
") 	c #0FAFF4",
"! 	c #0BB6F7",
"~ 	c #09BEF9",
"{ 	c #06C3FB",
"] 	c #03C9FC",
"^ 	c #02CEFE",
"/ 	c #00D2FF",
"( 	c #227EE6",
"_ 	c #2086E8",
": 	c #1B8FEB",
"< 	c #1897ED",
"[ 	c #14A0F0",
"} 	c #11A8F3",
"| 	c #0EB1F5",
"1 	c #0BB7F7",
"2 	c #08BFF9",
"3 	c #06C5FB",
"4 	c #03CAFD",
"5 	c #01CFFE",
"6 	c #2578E4",
"7 	c #227FE6",
"8 	c #1F88E9",
"9 	c #1B91EB",
"0 	c #1899EE",
"a 	c #14A3F2",
"b 	c #11AEF6",
"c 	c #0EB5F7",
"d 	c #0ABBF9",
"e 	c #08C1FA",
"f 	c #05C7FC",
"g 	c #03CCFD",
"h 	c #2971E2",
"i 	c #257AE4",
"j 	c #2181E7",
"k 	c #1D8AEA",
"l 	c #1A94ED",
"m 	c #1289E2",
"n 	c #055CC3",
"o 	c #0770CE",
"p 	c #0884DA",
"q 	c #0798E4",
"r 	c #06AEEF",
"s 	c #04C4FA",
"t 	c #02CDFE",
"u 	c #2A6DE0",
"v 	c #2872E2",
"w 	c #247BE5",
"x 	c #2183E7",
"y 	c #1D8CEA",
"z 	c #1A96EE",
"A 	c #1599ED",
"B 	c #0763C8",
"C 	c #2674E3",
"D 	c #237CE5",
"E 	c #1C8EEA",
"F 	c #1997ED",
"G 	c #15A1F1",
"H 	c #12A9F3",
"I 	c #237EE6",
"J 	c #1F87E9",
"K 	c #1C90EB",
"L 	c #1898ED",
"M 	c #15A1F0",
"N 	c #10A9F3",
"O 	c #2281E7",
"P 	c #208CEC",
"Q 	c #1B92EC",
"R 	c #179AEE",
"S 	c #14A3F1",
"T 	c #10ABF3",
"U 	c #0DB2F5",
"V 	c #2C51D3",
"W 	c #2052CC",
"X 	c #174FC5",
"Y 	c #0F4CBF",
"Z 	c #0847B9",
"` 	c #003DAF",
" .	c #084FBD",
"..	c #1B86E6",
"+.	c #1A94EC",
"@.	c #179CEF",
"#.	c #13A5F1",
"$.	c #0DB4F6",
"%.	c #3551D9",
"&.	c #3457DB",
"*.	c #315EDD",
"=.	c #2F66E0",
"-.	c #2D6EE3",
";.	c #2A78E6",
">.	c #2680E9",
",.	c #1F80E5",
"'.	c #159DEF",
").	c #12A6F2",
"!.	c #3551D8",
"~.	c #3357DA",
"{.	c #305EDC",
"].	c #2D65DE",
"^.	c #2A6EE1",
"/.	c #2775E3",
"(.	c #1B8EEB",
"_.	c #15A0F0",
":.	c #3552D9",
"<.	c #3259DA",
"[.	c #2F60DD",
"}.	c #2D67DF",
"|.	c #296FE1",
"1.	c #2577E4",
"2.	c #3454D9",
"3.	c #325ADB",
"4.	c #2E61DD",
"5.	c #2C68DF",
"6.	c #2870E2",
"7.	c #2281E6",
"8.	c #3355D9",
"9.	c #315CDB",
"0.	c #2E63DE",
"a.	c #2B6AE0",
"b.	c #2772E2",
"c.	c #305DDC",
"        . + @ # $ % & * =       ",
"    - ; > , ' ) ! ~ { ] ^ / /   ",
"    ( _ : < [ } | 1 2 3 4 5 /   ",
"    6 7 8 9 0 a b c d e f g 5   ",
"    h i j k l m n o p q r s t   ",
"    u v w x y z A B             ",
"        C D _ E F G H           ",
"            I J K L M N         ",
"              O P Q R S T U     ",
"    V W X Y Z `  ...+.@.#.@ $.  ",
"    %.&.*.=.-.;.>.,.; > '.).    ",
"      !.~.{.].^./.I _ (.< _.    ",
"        :.<.[.}.|.1.7 8 9       ",
"          2.3.4.5.6.6 7.        ",
"            8.9.0.a.b.          ",
"              ~.c.              "};
