/* XPM */
static char * stim32_xpm[] = {
"32 32 304 2",
"  	c None",
". 	c #12A0EF",
"+ 	c #12A2F1",
"@ 	c #11A8F2",
"# 	c #0FACF4",
"$ 	c #0EB0F5",
"% 	c #0CB3F5",
"& 	c #0BB7F7",
"* 	c #09BBF8",
"= 	c #08BFF9",
"- 	c #06C2FA",
"; 	c #06C4FB",
"> 	c #04C8FC",
", 	c #03C9FC",
"' 	c #02CCFD",
") 	c #01CDFE",
"! 	c #1D8BEA",
"~ 	c #1B90EB",
"{ 	c #1994EC",
"] 	c #1899EE",
"^ 	c #169DEF",
"/ 	c #14A1F0",
"( 	c #12A5F2",
"_ 	c #10A9F3",
": 	c #0FADF4",
"< 	c #0DB1F5",
"[ 	c #0CB5F6",
"} 	c #0BB8F7",
"| 	c #09BCF8",
"1 	c #05C5FB",
"2 	c #03C8FC",
"3 	c #03CBFD",
"4 	c #02CDFE",
"5 	c #01CFFE",
"6 	c #00D1FF",
"7 	c #2084E8",
"8 	c #1E88E9",
"9 	c #1D8DEA",
"0 	c #1B91EC",
"a 	c #1995ED",
"b 	c #1799EE",
"c 	c #169EEF",
"d 	c #12A6F2",
"e 	c #10AAF3",
"f 	c #0FAEF4",
"g 	c #0DB2F5",
"h 	c #0BB5F6",
"i 	c #0AB9F8",
"j 	c #09BDF8",
"k 	c #07C0F9",
"l 	c #06C3FA",
"m 	c #05C6FC",
"n 	c #02CEFE",
"o 	c #00D2FF",
"p 	c #00CFFE",
"q 	c #2181E7",
"r 	c #2085E8",
"s 	c #1E89E9",
"t 	c #1C8EEA",
"u 	c #1B92EC",
"v 	c #1996ED",
"w 	c #179AEE",
"x 	c #159FEF",
"y 	c #14A3F1",
"z 	c #11A7F2",
"A 	c #10ABF3",
"B 	c #0FAFF4",
"C 	c #0DB3F6",
"D 	c #0BB6F7",
"E 	c #0ABAF8",
"F 	c #08BEF9",
"G 	c #07C0FA",
"H 	c #04C7FC",
"I 	c #03CCFD",
"J 	c #01CEFE",
"K 	c #00D0FE",
"L 	c #227EE6",
"M 	c #2182E7",
"N 	c #1F86E8",
"O 	c #1E8AE9",
"P 	c #1C8FEB",
"Q 	c #1A93EC",
"R 	c #1897ED",
"S 	c #179BEE",
"T 	c #15A0F0",
"U 	c #13A4F1",
"V 	c #0EB0F4",
"W 	c #0DB4F6",
"X 	c #07C1FA",
"Y 	c #03CAFC",
"Z 	c #00D0FF",
"` 	c #247AE5",
" .	c #2183E7",
"..	c #1F87E8",
"+.	c #1A94EC",
"@.	c #1898ED",
"#.	c #169CEF",
"$.	c #14A0F0",
"%.	c #11A9F2",
"&.	c #0EB1F5",
"*.	c #0CB4F6",
"=.	c #06C5FB",
"-.	c #03CAFD",
";.	c #2577E4",
">.	c #247BE5",
",.	c #227FE6",
"'.	c #2083E7",
").	c #1F88E9",
"!.	c #1D8CEA",
"~.	c #1B91EB",
"{.	c #11AAF3",
"].	c #07BFF9",
"^.	c #2774E3",
"/.	c #2578E4",
"(.	c #237CE5",
"_.	c #2280E6",
":.	c #1C8DEA",
"<.	c #159FF0",
"[.	c #14A4F2",
"}.	c #12A7F3",
"|.	c #10ABF4",
"1.	c #0FAFF5",
"2.	c #09BDF9",
"3.	c #06C3FB",
"4.	c #2871E2",
"5.	c #2579E4",
"6.	c #237DE5",
"7.	c #2181E6",
"8.	c #1A92EC",
"9.	c #138FE6",
"0.	c #0A6DCE",
"a.	c #0D84DD",
"b.	c #0F97E8",
"c.	c #0EA9F2",
"d.	c #10B6F8",
"e.	c #0EBBFB",
"f.	c #0CBDFB",
"g.	c #0ABFFA",
"h.	c #08C1FB",
"i.	c #07C3FB",
"j.	c #06C6FC",
"k.	c #2A6EE1",
"l.	c #2676E3",
"m.	c #237EE6",
"n.	c #1999EF",
"o.	c #1391E7",
"p.	c #0247B5",
"q.	c #0031A7",
"r.	c #0034A9",
"s.	c #0039AD",
"t.	c #0246B5",
"u.	c #0358BF",
"v.	c #046AC9",
"w.	c #057AD3",
"x.	c #068EDD",
"y.	c #05A2E9",
"z.	c #06B7F4",
"A.	c #04C6FB",
"B.	c #03CDFE",
"C.	c #2A6BE0",
"D.	c #296EE1",
"E.	c #2772E2",
"F.	c #1F87E9",
"G.	c #1898EE",
"H.	c #18A5F4",
"I.	c #0C78D6",
"J.	c #0037AB",
"K.	c #003AAD",
"L.	c #003CAE",
"M.	c #0032A9",
"N.	c #002BA5",
"O.	c #001F9E",
"P.	c #0122A1",
"Q.	c #0451BD",
"R.	c #296CE0",
"S.	c #296FE1",
"T.	c #2773E2",
"U.	c #2084E7",
"V.	c #1995EC",
"W.	c #16A0F1",
"X.	c #15A8F4",
"Y.	c #13C0FF",
"Z.	c #2771E1",
"`.	c #2670E2",
" +	c #2675E3",
".+	c #237DE6",
"++	c #179BEF",
"@+	c #13A3F1",
"#+	c #2576E3",
"$+	c #257AE4",
"%+	c #1B8FEB",
"&+	c #0FACF3",
"*+	c #237BE5",
"=+	c #1F88E8",
"-+	c #0DAFF4",
";+	c #237BE6",
">+	c #14A2F0",
",+	c #1F7CE3",
"'+	c #2288EB",
")+	c #1C8EEB",
"!+	c #12A7F2",
"~+	c #264ECE",
"{+	c #1B4BC6",
"]+	c #0F47BD",
"^+	c #0642B5",
"/+	c #003DAF",
"(+	c #0039AB",
"_+	c #003AAC",
":+	c #003BAD",
"<+	c #0037AA",
"[+	c #0A55C2",
"}+	c #2188E9",
"|+	c #1E8CEA",
"1+	c #0BB3F6",
"2+	c #3553D9",
"3+	c #3556DA",
"4+	c #345ADC",
"5+	c #345DDE",
"6+	c #3261DE",
"7+	c #2E63DE",
"8+	c #2762D9",
"9+	c #215ED3",
"0+	c #195ACD",
"a+	c #1155C6",
"b+	c #0C4FBF",
"c+	c #0648B9",
"d+	c #003EB0",
"e+	c #136BD2",
"f+	c #1E8DEB",
"g+	c #12A5F1",
"h+	c #11A8F3",
"i+	c #0BB3F5",
"j+	c #3350D8",
"k+	c #3456D9",
"l+	c #3259DA",
"m+	c #315DDC",
"n+	c #2F60DD",
"o+	c #2E64DE",
"p+	c #2C68DF",
"q+	c #2B6CE1",
"r+	c #2A71E2",
"s+	c #2976E5",
"t+	c #287BE7",
"u+	c #2680E9",
"v+	c #2483E9",
"w+	c #1C7AE0",
"x+	c #1E84E6",
"y+	c #3550D8",
"z+	c #3554D9",
"A+	c #3356DA",
"B+	c #325ADB",
"C+	c #305DDC",
"D+	c #2D65DE",
"E+	c #2A6CE0",
"F+	c #2870E1",
"G+	c #2281E7",
"H+	c #159EEF",
"I+	c #14A2F1",
"J+	c #3551D8",
"K+	c #3454D9",
"L+	c #3357DA",
"M+	c #305EDC",
"N+	c #2E62DD",
"O+	c #2B69DF",
"P+	c #2A6DE0",
"Q+	c #2870E2",
"R+	c #2086E8",
"S+	c #1896ED",
"T+	c #364FD8",
"U+	c #3552D8",
"V+	c #3455D9",
"W+	c #3257DA",
"X+	c #315BDB",
"Y+	c #2B69E0",
"Z+	c #227EE5",
"`+	c #179CEF",
" @	c #3650D8",
".@	c #3258DA",
"+@	c #315CDB",
"@@	c #2F60DC",
"#@	c #2D66DF",
"$@	c #2B6AE0",
"%@	c #3450D8",
"&@	c #2D64DE",
"*@	c #2773E3",
"=@	c #2F61DD",
"-@	c #2281E6",
";@	c #354FD7",
">@	c #2E61DD",
",@	c #2C69DF",
"'@	c #2A6DE1",
")@	c #305FDC",
"!@	c #2E63DD",
"~@	c #2872E2",
"{@	c #237AE4",
"]@	c #3453D8",
"^@	c #315CDC",
"/@	c #2F5FDD",
"(@	c #2E64DD",
"_@	c #2D67DF",
":@	c #2B6BE0",
"<@	c #2672E2",
"[@	c #3356D9",
"}@	c #3258DB",
"                  . + @ # $ % & * = - ; > , ' )                 ",
"          ! ~ { ] ^ / ( _ : < [ } | = - 1 2 3 4 5 6 6 6 6       ",
"        7 8 9 0 a b c / d e f g h i j k l m 2 3 n 5 o o o p     ",
"        q r s t u v w x y z A B C D E F G ; H , I J K o o o     ",
"        L M N O P Q R S T U z # V W D E F X ; H Y ' J Z o o     ",
"        ` L  ...! ~ +.@.#.$.U %.: &.*.} | = - =.> -.4 J 6 o     ",
"        ;.>.,.'.).!.~.{ ] ^ / ( {.f < [ } | ].l m 2 3 4 5 6     ",
"        ^./.(._.7 s :.~.a w <.[.}.|.1.g h i 2.k 3.m , I n 5     ",
"        4.^.5.6.7.r O t 8.R 9.0.a.b.c.d.e.f.g.h.i.j.> , ' )     ",
"        k.4.l.5.m.M N ! P Q n.o.p.q.r.s.t.u.v.w.x.y.z.A.B.'     ",
"        C.D.E.l.>.,.'.F.!.~ { G.H.I.J.K.L.K.s.J.M.N.O.P.Q.      ",
"          R.S.T.;.>.,.U.8 9 ~.V.b W.X.Y.                        ",
"              Z.^./.(._.r s :.~.v w <.y z                       ",
"                `. +5..+q N O t Q R ++<.@+@ A                   ",
"                    #+$+L M ..! %+Q @.#.$.U @ &+                ",
"                        *+,.'.=+!.~ { b ^ / ( _ : -+            ",
"                          ;+_.r 8 9 ~.a b c >+d e B g           ",
"                              ,+'+s )+u v w <.y !+A B C h       ",
"        ~+{+]+^+/+(+_+:+:+L.L.<+[+}+|+)+Q R S T @+@ &+$ *.1+    ",
"        2+3+4+5+6+7+8+9+0+a+b+c+d+<+e+f+~ +.@.#./ g+h+: &.i+    ",
"        j+2+k+l+m+n+o+p+q+r+s+t+u+v+w+x+!.~ a b ^ / g+{.:       ",
"          y+z+A+B+C+n+D+p+E+F+^./.(.G+r s :.u a w H+I+d A       ",
"          y+J+K+L+B+M+N+D+O+P+Q+^.5.6.q R+O t 8.S+S <.@+        ",
"            T+U+V+W+X+M+N+D+Y+k.4. +$+Z+M N ! %+Q @.`+$.        ",
"               @U+V+.@+@@@7+#@$@S.E.l.>.,.'...!.~ { ]           ",
"              %@ @2+A+B+m+n+&@p+C.S.*@;.>._.7 ).9 ~.            ",
"                %@y+K+L+B+M+=@D+p+E+F+^./.(.-@r s               ",
"                  ;@J+K+L+B+M+>@D+,@'@4. +5.6.q                 ",
"                      U+V+.@+@)@!@#@$@k.~@l.{@                  ",
"                        ]@k+l+^@/@(@_@:@S.<@                    ",
"                            [@B+m+n+&@O+                        ",
"                              }@B+C+                            "};
